# This file uses centimeters as units for non-parametric coordinates.

mtllib Book1.mtl
g default
v -0.140504 -0.199932 0.045014
v 0.138768 -0.199932 0.045014
v -0.140504 0.199932 0.045014
v 0.138768 0.199932 0.045014
v -0.140504 0.199932 -0.045014
v 0.138768 0.199932 -0.045014
v -0.140504 -0.199932 -0.045014
v 0.138768 -0.199932 -0.045014
v 0.140504 -0.153007 -0.031162
v 0.140504 -0.153007 0.031162
v 0.140504 0.153007 -0.031162
v 0.140504 0.153007 0.031162
vt -0.910213 0.392157
vt -0.694527 0.392157
vt -0.694527 0.607843
vt -0.910213 0.607843
vt -0.910213 0.392157
vt -0.694527 0.392157
vt -0.694527 0.607843
vt -0.910213 0.607843
vt -0.910213 0.392157
vt -0.694527 0.392157
vt -0.694527 0.607843
vt -0.910213 0.607843
vt -0.910213 0.392157
vt -0.694527 0.392157
vt -0.694527 0.607843
vt -0.910213 0.607843
vt -0.910213 0.392157
vt -0.694527 0.392157
vt -0.694527 0.607843
vt -0.910213 0.607843
vt -0.910213 0.392157
vt -0.694527 0.392157
vt -0.694527 0.607843
vt -0.910213 0.607843
vt -0.628871 0.371129
vt -0.371129 0.371129
vt -0.371129 0.628871
vt -0.628871 0.628871
vn 0.000000 0.000000 1.000000
vn 0.000000 0.000000 1.000000
vn 0.000000 0.000000 1.000000
vn 0.000000 0.000000 1.000000
vn 0.000000 1.000000 0.000000
vn 0.000000 1.000000 0.000000
vn 0.000000 1.000000 0.000000
vn 0.000000 1.000000 0.000000
vn 0.000000 0.000000 -1.000000
vn 0.000000 0.000000 -1.000000
vn 0.000000 0.000000 -1.000000
vn 0.000000 0.000000 -1.000000
vn 0.000000 -1.000000 0.000000
vn 0.000000 -1.000000 0.000000
vn 0.000000 -1.000000 0.000000
vn 0.000000 -1.000000 0.000000
vn 1.000000 0.000000 0.000000
vn 1.000000 0.000000 0.000000
vn 1.000000 0.000000 0.000000
vn 1.000000 0.000000 0.000000
vn -1.000000 0.000000 0.000000
vn -1.000000 0.000000 0.000000
vn -1.000000 0.000000 0.000000
vn -1.000000 0.000000 0.000000
vn 1.000000 0.000000 0.000000
vn 1.000000 0.000000 0.000000
vn 1.000000 0.000000 0.000000
vn 1.000000 0.000000 0.000000
s off
g Book1
usemtl initialShadingGroup
f 1/1/1 2/2/2 4/3/3 3/4/4
f 3/5/5 4/6/6 6/7/7 5/8/8
f 5/9/9 6/10/10 8/11/11 7/12/12
f 7/13/13 8/14/14 2/15/15 1/16/16
f 2/17/17 8/18/18 6/19/19 4/20/20
f 7/21/21 1/22/22 3/23/23 5/24/24
f 10/25/25 9/26/26 11/27/27 12/28/28
