# This file uses centimeters as units for non-parametric coordinates.

mtllib CarpetCross.mtl
g default
v 0.500000 0.010000 1.000000
v 0.500000 0.010000 -1.000000
v -0.500000 0.010000 1.000000
v -0.500000 0.010000 -1.000000
v 0.500000 0.010000 0.500000
v -0.500000 0.010000 0.500000
v 0.500000 0.010000 -0.500000
v -0.500000 0.010000 -0.500000
v 1.000000 0.010000 0.500000
v 1.000000 0.010000 -0.500000
v -1.000000 0.010000 0.500000
v -1.000000 0.010000 -0.500000
vt 0.000000 0.000000
vt 1.000000 0.000000
vt 0.000000 1.000000
vt 1.000000 1.000000
vt 0.500000 0.000000
vt 0.500000 1.000000
vt 0.750000 0.000000
vt 0.750000 1.000000
vt 0.000000 0.000000
vt 1.000000 0.000000
vt 1.000000 1.000000
vt 0.000000 1.000000
vt 0.000000 0.000000
vt 1.000000 0.000000
vt 1.000000 1.000000
vt 0.000000 1.000000
vn 0.000000 1.000000 0.000000
vn 0.000000 1.000000 0.000000
vn 0.000000 1.000000 0.000000
vn 0.000000 1.000000 0.000000
vn 0.000000 1.000000 0.000000
vn 0.000000 1.000000 0.000000
vn 0.000000 1.000000 0.000000
vn 0.000000 1.000000 0.000000
vn 0.000000 1.000000 0.000000
vn 0.000000 1.000000 0.000000
vn 0.000000 1.000000 0.000000
vn 0.000000 1.000000 0.000000
vn 0.000000 1.000000 0.000000
vn 0.000000 1.000000 0.000000
vn 0.000000 1.000000 0.000000
vn 0.000000 1.000000 0.000000
s 1
g CarpetCross Carpets
usemtl initialShadingGroup
f 1/1/1 5/5/2 6/6/3 3/3/4
f 6/6/3 5/5/2 7/7/5 8/8/6
f 8/8/6 7/7/5 2/2/7 4/4/8
s off
f 7/9/9 5/10/10 9/11/11 10/12/12
f 6/13/13 8/14/14 12/15/15 11/16/16
