# This file uses centimeters as units for non-parametric coordinates.

mtllib Shelve.mtl
g default
v -0.250000 0.000000 1.044481
v -0.250000 2.881617 1.044481
v -0.250000 2.881617 -1.044481
v -0.250000 0.000000 -1.044481
v 0.250000 0.000000 1.044481
v 0.250000 0.000000 -1.044481
v 0.250000 2.881617 -1.044481
v 0.250000 2.881617 1.044481
v 0.250000 2.383656 -1.044481
v 0.250000 2.318662 -1.044481
v 0.250000 2.318662 1.044481
v 0.250000 2.383656 1.044481
v -0.250000 2.383656 1.044481
v -0.250000 2.318662 1.044481
v -0.250000 2.318662 -1.044481
v -0.250000 2.383656 -1.044481
v 0.250000 1.883656 -1.044481
v 0.250000 1.818662 -1.044481
v 0.250000 1.818662 1.044481
v 0.250000 1.883656 1.044481
v -0.250000 1.883656 1.044481
v -0.250000 1.818662 1.044481
v -0.250000 1.818662 -1.044481
v -0.250000 1.883656 -1.044481
v 0.250000 1.383656 -1.044481
v 0.250000 1.318662 -1.044481
v 0.250000 1.318662 1.044481
v 0.250000 1.383656 1.044481
v -0.250000 1.383656 1.044481
v -0.250000 1.318662 1.044481
v -0.250000 1.318662 -1.044481
v -0.250000 1.383656 -1.044481
v 0.250000 0.883656 -1.044481
v 0.250000 0.818662 -1.044481
v 0.250000 0.818662 1.044481
v 0.250000 0.883656 1.044481
v -0.250000 0.883656 1.044481
v -0.250000 0.818662 1.044481
v -0.250000 0.818662 -1.044481
v -0.250000 0.883656 -1.044481
v 0.250000 0.383656 -1.044481
v 0.250000 0.318662 -1.044481
v 0.250000 0.318662 1.044481
v 0.250000 0.383656 1.044481
v -0.250000 0.318662 1.044481
v -0.250000 0.383656 1.044481
v -0.250000 0.318662 -1.044481
v -0.250000 0.383656 -1.044481
v -0.250000 2.881617 0.919006
v 0.250000 2.881617 0.919006
v 0.250000 2.383656 0.919006
v 0.250000 2.342636 0.919006
v 0.250000 1.883656 0.919006
v 0.250000 1.842635 0.919006
v 0.250000 1.383656 0.919006
v 0.250000 1.342635 0.919006
v 0.250000 0.883656 0.919006
v 0.250000 0.842635 0.919006
v 0.250000 0.383656 0.919006
v 0.250000 0.318662 0.919006
v 0.250000 0.000000 0.919006
v -0.250000 0.000000 0.919006
v -0.250000 0.318662 0.919006
v -0.250000 0.383656 0.919006
v -0.250000 0.818662 0.919006
v -0.250000 0.883656 0.919006
v -0.250000 1.318662 0.919006
v -0.250000 1.383656 0.919006
v -0.250000 1.818662 0.919006
v -0.250000 1.883656 0.919006
v -0.250000 2.318662 0.919006
v -0.250000 2.383656 0.919006
v -0.250000 0.000000 -0.919006
v 0.250000 0.000000 -0.919006
v 0.250000 0.318662 -0.919006
v 0.250000 0.383656 -0.919006
v 0.250000 0.842635 -0.919006
v 0.250000 0.883656 -0.919006
v 0.250000 1.342635 -0.919006
v 0.250000 1.383656 -0.919006
v 0.250000 1.842635 -0.919006
v 0.250000 1.883656 -0.919006
v 0.250000 2.342636 -0.919006
v 0.250000 2.383656 -0.919006
v 0.250000 2.881617 -0.919006
v -0.250000 2.881617 -0.919006
v -0.250000 2.383656 -0.919006
v -0.250000 2.318662 -0.919006
v -0.250000 1.883656 -0.919006
v -0.250000 1.818662 -0.919006
v -0.250000 1.383656 -0.919006
v -0.250000 1.318662 -0.919006
v -0.250000 0.883656 -0.919006
v -0.250000 0.818662 -0.919006
v -0.250000 0.383656 -0.919006
v -0.250000 0.318662 -0.919006
v 0.250000 2.784410 -1.044481
v 0.250000 2.814867 -0.919006
v 0.250000 2.814867 0.919006
v 0.250000 2.784410 1.044481
v -0.250000 2.784410 1.044481
v -0.250000 2.784410 0.919006
v -0.250000 2.784410 -0.919006
v -0.250000 2.784410 -1.044481
v -0.189169 2.383656 -0.919006
v -0.189169 2.383656 0.919006
v -0.189169 2.814867 -0.919006
v -0.189169 2.814867 0.919006
v -0.189169 1.883656 -0.919006
v -0.189169 1.883656 0.919006
v -0.189169 2.342636 -0.919006
v -0.189169 2.342636 0.919006
v -0.189169 1.383656 -0.919006
v -0.189169 1.383656 0.919006
v -0.189169 1.842635 -0.919006
v -0.189169 1.842635 0.919006
v -0.189169 0.883656 -0.919006
v -0.189169 0.883656 0.919006
v -0.189169 1.342635 -0.919006
v -0.189169 1.342635 0.919006
v -0.189169 0.383656 -0.919006
v -0.189169 0.383656 0.919006
v -0.189169 0.842635 -0.919006
v -0.189169 0.842635 0.919006
v 0.156523 0.000000 -0.919006
v 0.156523 0.318662 -0.919006
v 0.156523 0.318662 0.919006
v 0.156523 0.000000 0.919006
vt 0.375000 0.500000
vt 0.375000 0.544375
vt 0.125000 0.211041
vt 0.375000 0.586041
vt 0.125000 0.169375
vt 0.375000 0.627708
vt 0.125000 0.127708
vt 0.375000 0.669375
vt 0.125000 0.086041
vt 0.375000 0.711041
vt 0.125000 0.044375
vt 0.250000 0.375000
vt 0.375000 0.000000
vt 0.125000 0.038959
vt 0.500000 0.711041
vt 0.500000 0.500000
vt 0.375000 0.038959
vt 0.500000 0.750000
vt 0.500000 0.461041
vt 0.500000 0.538959
vt 0.500000 0.250000
vt 0.500000 0.288959
vt 0.375000 0.250000
vt 0.375000 0.211041
vt 0.125000 0.250000
vt 0.500000 0.500000
vt 0.375000 0.538959
vt 0.500000 0.580625
vt 0.500000 0.294375
vt 0.500000 0.330625
vt 0.375000 0.205625
vt 0.375000 0.169375
vt 0.125000 0.205625
vt 0.500000 0.544375
vt 0.375000 0.580625
vt 0.500000 0.622292
vt 0.500000 0.336041
vt 0.500000 0.372292
vt 0.375000 0.163959
vt 0.375000 0.127708
vt 0.125000 0.163959
vt 0.500000 0.586041
vt 0.375000 0.622292
vt 0.500000 0.663959
vt 0.500000 0.377708
vt 0.500000 0.413959
vt 0.375000 0.122292
vt 0.375000 0.086041
vt 0.125000 0.122292
vt 0.500000 0.627708
vt 0.375000 0.663959
vt 0.500000 0.705625
vt 0.500000 0.419375
vt 0.500000 0.455625
vt 0.375000 0.080625
vt 0.375000 0.044375
vt 0.125000 0.080625
vt 0.500000 0.669375
vt 0.375000 0.705625
vt 0.312500 0.250000
vt 0.375000 0.312500
vt 0.500000 0.312500
vt 0.500000 0.351459
vt 0.500000 0.356875
vt 0.500000 0.393125
vt 0.500000 0.398541
vt 0.500000 0.434792
vt 0.500000 0.440208
vt 0.500000 0.476459
vt 0.500000 0.481875
vt 0.500000 0.518125
vt 0.500000 0.523541
vt 0.500000 0.562500
vt 0.312500 0.000000
vt 0.312500 0.038959
vt 0.312500 0.044375
vt 0.312500 0.080625
vt 0.312500 0.086041
vt 0.312500 0.122292
vt 0.312500 0.127708
vt 0.312500 0.163959
vt 0.312500 0.169375
vt 0.312500 0.205625
vt 0.312500 0.211041
vt 0.187500 0.000000
vt 0.500000 0.687500
vt 0.500000 0.648541
vt 0.500000 0.643125
vt 0.500000 0.606875
vt 0.500000 0.601459
vt 0.500000 0.565208
vt 0.500000 0.559792
vt 0.500000 0.523541
vt 0.500000 0.518125
vt 0.500000 0.481875
vt 0.500000 0.476459
vt 0.500000 0.437500
vt 0.187500 0.250000
vt 0.375000 0.437500
vt 0.187500 0.211041
vt 0.187500 0.205625
vt 0.187500 0.169375
vt 0.187500 0.163959
vt 0.187500 0.127708
vt 0.187500 0.122292
vt 0.187500 0.086041
vt 0.187500 0.080625
vt 0.187500 0.044375
vt 0.187500 0.038959
vt 0.500000 0.505562
vt 0.500000 0.443062
vt 0.500000 0.318062
vt 0.500000 0.255562
vt 0.375000 0.244438
vt 0.312500 0.244438
vt 0.187500 0.244438
vt 0.125000 0.244438
vt 0.375000 0.505562
vt 0.500000 0.351459
vt 0.500000 0.476459
vt 0.500000 0.443062
vt 0.500000 0.318062
vt 0.500000 0.393125
vt 0.500000 0.518125
vt 0.500000 0.481875
vt 0.500000 0.356875
vt 0.500000 0.434792
vt 0.500000 0.559792
vt 0.500000 0.523541
vt 0.500000 0.398541
vt 0.500000 0.476459
vt 0.500000 0.601459
vt 0.500000 0.565208
vt 0.500000 0.440208
vt 0.500000 0.518125
vt 0.500000 0.643125
vt 0.500000 0.606875
vt 0.500000 0.481875
vt 0.500000 0.687500
vt 0.500000 0.648541
vt 0.500000 0.523541
vt 0.500000 0.562500
vn 0.000000 1.000000 0.000000
vn 0.000000 1.000000 0.000000
vn 0.000000 1.000000 0.000000
vn 0.000000 1.000000 0.000000
vn 0.000000 0.000000 -1.000000
vn 0.000000 0.000000 -1.000000
vn 0.000000 0.000000 -1.000000
vn 0.000000 0.000000 -1.000000
vn 1.000000 0.000000 0.000000
vn 1.000000 0.000000 0.000000
vn 1.000000 0.000000 0.000000
vn 1.000000 0.000000 0.000000
vn 0.000000 0.000000 1.000000
vn 0.000000 0.000000 1.000000
vn 0.000000 0.000000 1.000000
vn 0.000000 0.000000 1.000000
vn -1.000000 0.000000 0.000000
vn -1.000000 0.000000 0.000000
vn -1.000000 0.000000 0.000000
vn -1.000000 0.000000 0.000000
vn 0.000000 0.000000 -1.000000
vn 0.000000 0.000000 -1.000000
vn 0.000000 0.000000 -1.000000
vn 0.000000 0.000000 -1.000000
vn 1.000000 0.000000 0.000000
vn 1.000000 0.000000 0.000000
vn 1.000000 0.000000 0.000000
vn 1.000000 0.000000 0.000000
vn 0.000000 0.000000 1.000000
vn 0.000000 0.000000 1.000000
vn 0.000000 0.000000 1.000000
vn 0.000000 0.000000 1.000000
vn -1.000000 0.000000 0.000000
vn -1.000000 0.000000 0.000000
vn -1.000000 0.000000 0.000000
vn -1.000000 0.000000 0.000000
vn 0.000000 0.000000 -1.000000
vn 0.000000 0.000000 -1.000000
vn 0.000000 0.000000 -1.000000
vn 0.000000 0.000000 -1.000000
vn 1.000000 0.000000 0.000000
vn 1.000000 0.000000 0.000000
vn 1.000000 0.000000 0.000000
vn 1.000000 0.000000 0.000000
vn 0.000000 0.000000 1.000000
vn 0.000000 0.000000 1.000000
vn 0.000000 0.000000 1.000000
vn 0.000000 0.000000 1.000000
vn -1.000000 0.000000 0.000000
vn -1.000000 0.000000 0.000000
vn -1.000000 0.000000 0.000000
vn -1.000000 0.000000 0.000000
vn 0.000000 0.000000 -1.000000
vn 0.000000 0.000000 -1.000000
vn 0.000000 0.000000 -1.000000
vn 0.000000 0.000000 -1.000000
vn 1.000000 0.000000 0.000000
vn 1.000000 0.000000 0.000000
vn 1.000000 0.000000 0.000000
vn 1.000000 0.000000 0.000000
vn 0.000000 0.000000 1.000000
vn 0.000000 0.000000 1.000000
vn 0.000000 0.000000 1.000000
vn 0.000000 0.000000 1.000000
vn -1.000000 0.000000 0.000000
vn -1.000000 0.000000 0.000000
vn -1.000000 0.000000 0.000000
vn -1.000000 0.000000 0.000000
vn 0.000000 0.000000 -1.000000
vn 0.000000 0.000000 -1.000000
vn 0.000000 0.000000 -1.000000
vn 0.000000 0.000000 -1.000000
vn 1.000000 0.000000 0.000000
vn 1.000000 0.000000 0.000000
vn 1.000000 0.000000 0.000000
vn 1.000000 0.000000 0.000000
vn 0.000000 0.000000 1.000000
vn 0.000000 0.000000 1.000000
vn 0.000000 0.000000 1.000000
vn 0.000000 0.000000 1.000000
vn -1.000000 0.000000 0.000000
vn -1.000000 0.000000 0.000000
vn -1.000000 0.000000 0.000000
vn -1.000000 0.000000 0.000000
vn -1.000000 0.000000 0.000000
vn -1.000000 0.000000 0.000000
vn 0.000000 0.000000 -1.000000
vn 0.000000 0.000000 -1.000000
vn 0.000000 0.000000 1.000000
vn 0.000000 0.000000 1.000000
vn 1.000000 0.000000 0.000000
vn 1.000000 0.000000 0.000000
vn 1.000000 0.000000 0.000000
vn 1.000000 0.000000 0.000000
vn 1.000000 0.000000 0.000000
vn 1.000000 0.000000 0.000000
vn 1.000000 0.000000 0.000000
vn 1.000000 0.000000 0.000000
vn 0.000000 0.000000 1.000000
vn 0.000000 0.000000 1.000000
vn -1.000000 0.000000 0.000000
vn -1.000000 0.000000 0.000000
vn 0.000000 0.000000 -1.000000
vn 0.000000 0.000000 -1.000000
vn 1.000000 0.000000 0.000000
vn 1.000000 0.000000 0.000000
vn 1.000000 0.000000 0.000000
vn 1.000000 0.000000 0.000000
vn 1.000000 0.000000 0.000000
vn 1.000000 0.000000 0.000000
vn 1.000000 0.000000 0.000000
vn 1.000000 0.000000 0.000000
vn 1.000000 0.000000 0.000000
vn 1.000000 0.000000 0.000000
vn 1.000000 0.000000 0.000000
vn 1.000000 0.000000 0.000000
vn 1.000000 0.000000 0.000000
vn 1.000000 0.000000 0.000000
vn 1.000000 0.000000 0.000000
vn 1.000000 0.000000 0.000000
vn 0.000000 1.000000 0.000000
vn 0.000000 1.000000 0.000000
vn 1.000000 0.000000 0.000000
vn 1.000000 0.000000 0.000000
vn 1.000000 0.000000 0.000000
vn 1.000000 0.000000 0.000000
vn 1.000000 0.000000 0.000000
vn 1.000000 0.000000 0.000000
vn 1.000000 0.000000 0.000000
vn 1.000000 0.000000 0.000000
vn 1.000000 0.000000 0.000000
vn 1.000000 0.000000 0.000000
vn 1.000000 0.000000 0.000000
vn 1.000000 0.000000 0.000000
vn 1.000000 0.000000 0.000000
vn 1.000000 0.000000 0.000000
vn -1.000000 0.000000 0.000000
vn -1.000000 0.000000 0.000000
vn -1.000000 0.000000 0.000000
vn -1.000000 0.000000 0.000000
vn -1.000000 0.000000 0.000000
vn -1.000000 0.000000 0.000000
vn -1.000000 0.000000 0.000000
vn -1.000000 0.000000 0.000000
vn -1.000000 0.000000 0.000000
vn -1.000000 0.000000 0.000000
vn -1.000000 0.000000 0.000000
vn -1.000000 0.000000 0.000000
vn 1.000000 0.000000 0.000000
vn 1.000000 0.000000 0.000000
vn 1.000000 0.000000 0.000000
vn 1.000000 0.000000 0.000000
vn 1.000000 0.000000 0.000000
vn 1.000000 0.000000 0.000000
vn 1.000000 0.000000 0.000000
vn 1.000000 0.000000 0.000000
vn 1.000000 0.000000 0.000000
vn 1.000000 0.000000 0.000000
vn 1.000000 0.000000 0.000000
vn 1.000000 0.000000 0.000000
vn 1.000000 0.000000 0.000000
vn 1.000000 0.000000 0.000000
vn 0.000000 1.000000 0.000000
vn 0.000000 1.000000 0.000000
vn -1.000000 0.000000 0.000000
vn -1.000000 0.000000 0.000000
vn -1.000000 0.000000 0.000000
vn -1.000000 0.000000 0.000000
vn -1.000000 0.000000 0.000000
vn -1.000000 0.000000 0.000000
vn -1.000000 0.000000 0.000000
vn -1.000000 0.000000 0.000000
vn -1.000000 0.000000 0.000000
vn -1.000000 0.000000 0.000000
vn -1.000000 0.000000 0.000000
vn -1.000000 0.000000 0.000000
vn 1.000000 0.000000 0.000000
vn 1.000000 0.000000 0.000000
vn 1.000000 0.000000 0.000000
vn 1.000000 0.000000 0.000000
vn 0.000000 0.000000 1.000000
vn 0.000000 0.000000 1.000000
vn -1.000000 0.000000 0.000000
vn -1.000000 0.000000 0.000000
vn -1.000000 0.000000 0.000000
vn -1.000000 0.000000 0.000000
vn 0.000000 0.000000 -1.000000
vn 0.000000 0.000000 -1.000000
vn 0.000000 1.000000 0.000000
vn 0.000000 1.000000 0.000000
vn 0.000000 1.000000 0.000000
vn 0.000000 1.000000 0.000000
vn 0.000000 0.000000 1.000000
vn 0.000000 0.000000 1.000000
vn 0.000000 0.000000 1.000000
vn 0.000000 0.000000 1.000000
vn 0.000000 -1.000000 0.000000
vn 0.000000 -1.000000 0.000000
vn 0.000000 -1.000000 0.000000
vn 0.000000 -1.000000 0.000000
vn 0.000000 0.000000 -1.000000
vn 0.000000 0.000000 -1.000000
vn 0.000000 0.000000 -1.000000
vn 0.000000 0.000000 -1.000000
vn 0.000000 1.000000 0.000000
vn 0.000000 1.000000 0.000000
vn 0.000000 1.000000 0.000000
vn 0.000000 1.000000 0.000000
vn 0.000000 0.000000 1.000000
vn 0.000000 0.000000 1.000000
vn 0.000000 0.000000 1.000000
vn 0.000000 0.000000 1.000000
vn 0.000000 -1.000000 0.000000
vn 0.000000 -1.000000 0.000000
vn 0.000000 -1.000000 0.000000
vn 0.000000 -1.000000 0.000000
vn 0.000000 0.000000 -1.000000
vn 0.000000 0.000000 -1.000000
vn 0.000000 0.000000 -1.000000
vn 0.000000 0.000000 -1.000000
vn 0.000000 1.000000 0.000000
vn 0.000000 1.000000 0.000000
vn 0.000000 1.000000 0.000000
vn 0.000000 1.000000 0.000000
vn 0.000000 0.000000 1.000000
vn 0.000000 0.000000 1.000000
vn 0.000000 0.000000 1.000000
vn 0.000000 0.000000 1.000000
vn 0.000000 -1.000000 0.000000
vn 0.000000 -1.000000 0.000000
vn 0.000000 -1.000000 0.000000
vn 0.000000 -1.000000 0.000000
vn 0.000000 0.000000 -1.000000
vn 0.000000 0.000000 -1.000000
vn 0.000000 0.000000 -1.000000
vn 0.000000 0.000000 -1.000000
vn 0.000000 1.000000 0.000000
vn 0.000000 1.000000 0.000000
vn 0.000000 1.000000 0.000000
vn 0.000000 1.000000 0.000000
vn 0.000000 0.000000 1.000000
vn 0.000000 0.000000 1.000000
vn 0.000000 0.000000 1.000000
vn 0.000000 0.000000 1.000000
vn 0.000000 -1.000000 0.000000
vn 0.000000 -1.000000 0.000000
vn 0.000000 -1.000000 0.000000
vn 0.000000 -1.000000 0.000000
vn 0.000000 0.000000 -1.000000
vn 0.000000 0.000000 -1.000000
vn 0.000000 0.000000 -1.000000
vn 0.000000 0.000000 -1.000000
vn 0.000000 1.000000 0.000000
vn 0.000000 1.000000 0.000000
vn 0.000000 1.000000 0.000000
vn 0.000000 1.000000 0.000000
vn 0.000000 0.000000 1.000000
vn 0.000000 0.000000 1.000000
vn 0.000000 0.000000 1.000000
vn 0.000000 0.000000 1.000000
vn 0.000000 -1.000000 0.000000
vn 0.000000 -1.000000 0.000000
vn 0.000000 -1.000000 0.000000
vn 0.000000 -1.000000 0.000000
vn 0.000000 0.000000 -1.000000
vn 0.000000 0.000000 -1.000000
vn 0.000000 0.000000 -1.000000
vn 0.000000 0.000000 -1.000000
vn 0.000000 0.000000 1.000000
vn 0.000000 0.000000 1.000000
vn 0.000000 0.000000 1.000000
vn 0.000000 0.000000 1.000000
vn 0.000000 -1.000000 0.000000
vn 0.000000 -1.000000 0.000000
vn 0.000000 -1.000000 0.000000
vn 0.000000 -1.000000 0.000000
vn 0.000000 0.000000 -1.000000
vn 0.000000 0.000000 -1.000000
vn 0.000000 0.000000 -1.000000
vn 0.000000 0.000000 -1.000000
vn 0.000000 -1.000000 0.000000
vn 0.000000 -1.000000 0.000000
vn 0.000000 -1.000000 0.000000
vn 0.000000 -1.000000 0.000000
vn 0.000000 -1.000000 0.000000
vn 0.000000 -1.000000 0.000000
vn 0.000000 -1.000000 0.000000
vn 0.000000 -1.000000 0.000000
vn 0.000000 -1.000000 0.000000
vn 0.000000 -1.000000 0.000000
vn 0.000000 -1.000000 0.000000
vn 0.000000 -1.000000 0.000000
vn 0.000000 -1.000000 0.000000
vn 0.000000 -1.000000 0.000000
vn 0.000000 -1.000000 0.000000
vn 0.000000 -1.000000 0.000000
vn 0.000000 -1.000000 0.000000
vn 0.000000 -1.000000 0.000000
s 1
g Shelves
usemtl initialShadingGroup
f 50/62/1 85/97/2 86/99/3 49/61/4
s 2
f 9/20/5 10/34/6 15/2/7 16/27/8
s 3
f 83/95/9 84/96/10 51/63/11 52/64/12
s 4
f 11/29/13 12/22/14 13/24/15 14/31/16
s 5
f 87/100/17 88/101/18 71/83/19 72/84/20
s 2
f 17/28/21 18/42/22 23/4/23 24/35/24
s 3
f 81/93/25 82/94/26 53/65/27 54/66/28
s 4
f 19/37/29 20/30/30 21/32/31 22/39/32
s 5
f 89/102/33 90/103/34 69/81/35 70/82/36
s 2
f 25/36/37 26/50/38 31/6/39 32/43/40
s 3
f 79/91/41 80/92/42 55/67/43 56/68/44
s 4
f 27/45/45 28/38/46 29/40/47 30/47/48
s 5
f 91/104/49 92/105/50 67/79/51 68/80/52
s 2
f 33/44/53 34/58/54 39/8/55 40/51/56
s 3
f 77/89/57 78/90/58 57/69/59 58/70/60
s 4
f 35/53/61 36/46/62 37/48/63 38/55/64
s 5
f 93/106/65 94/107/66 65/77/67 66/78/68
s 2
f 41/52/69 42/15/70 47/10/71 48/59/72
s 3
f 75/87/73 76/88/74 59/71/75 60/72/76
s 4
f 43/19/77 44/54/78 46/56/79 45/17/80
s 5
f 95/108/81 96/109/82 63/75/83 64/76/84
f 63/75/83 96/109/82 73/85/85 62/74/86
s 2
f 47/10/71 42/15/70 6/18/87 4/12/88
s 4
f 1/13/89 5/16/90 43/19/77 45/17/80
s off
f 125/139/91 126/140/92 127/141/93 128/142/94
f 106/119/95 105/120/96 107/121/97 108/122/98
s 4
f 13/24/15 12/22/14 100/113/99 101/114/100
s 5
f 102/115/101 103/116/102 87/100/17 72/84/20
s 2
f 104/118/103 97/110/104 9/20/5 16/27/8
s off
f 110/123/105 109/124/106 111/125/107 112/126/108
s 4
f 21/32/31 20/30/30 11/29/13 14/31/16
s 5
f 71/83/19 88/101/18 89/102/33 70/82/36
s 2
f 15/2/7 10/34/6 17/28/21 24/35/24
s off
f 114/127/109 113/128/110 115/129/111 116/130/112
s 4
f 29/40/47 28/38/46 19/37/29 22/39/32
s 5
f 69/81/35 90/103/34 91/104/49 68/80/52
s 2
f 23/4/23 18/42/22 25/36/37 32/43/40
s off
f 118/131/113 117/132/114 119/133/115 120/134/116
s 4
f 37/48/63 36/46/62 27/45/45 30/47/48
s 5
f 67/79/51 92/105/50 93/106/65 66/78/68
s 2
f 31/6/39 26/50/38 33/44/53 40/51/56
s off
f 122/135/117 121/136/118 123/137/119 124/138/120
s 4
f 46/56/79 44/54/78 35/53/61 38/55/64
s 5
f 65/77/67 94/107/66 95/108/81 64/76/84
s 2
f 39/8/55 34/58/54 41/52/69 48/59/72
s 1
f 2/23/121 8/21/122 50/62/1 49/61/4
s 3
f 51/63/11 99/112/123 100/113/124 12/22/125
f 52/64/12 51/63/11 12/22/125 11/29/126
f 53/65/27 52/64/12 11/29/126 20/30/127
f 54/66/28 53/65/27 20/30/127 19/37/128
f 55/67/43 54/66/28 19/37/128 28/38/129
f 56/68/44 55/67/43 28/38/129 27/45/130
f 57/69/59 56/68/44 27/45/130 36/46/131
f 58/70/60 57/69/59 36/46/131 35/53/132
f 59/71/75 58/70/60 35/53/132 44/54/133
f 60/72/76 59/71/75 44/54/133 43/19/134
f 61/73/135 60/72/76 43/19/134 5/16/136
s 5
f 63/75/83 62/74/86 1/13/137 45/17/138
f 45/17/138 46/56/139 64/76/84 63/75/83
f 65/77/67 64/76/84 46/56/139 38/55/140
f 38/55/140 37/48/141 66/78/68 65/77/67
f 67/79/51 66/78/68 37/48/141 30/47/142
f 30/47/142 29/40/143 68/80/52 67/79/51
f 69/81/35 68/80/52 29/40/143 22/39/144
f 22/39/144 21/32/145 70/82/36 69/81/35
f 71/83/19 70/82/36 21/32/145 14/31/146
f 14/31/146 13/24/147 72/84/20 71/83/19
f 101/114/148 102/115/101 72/84/20 13/24/147
s 3
f 6/18/149 42/15/150 75/87/73 74/86/151
f 42/15/150 41/52/152 76/88/74 75/87/73
f 41/52/152 34/58/153 77/89/57 76/88/74
f 34/58/153 33/44/154 78/90/58 77/89/57
f 33/44/154 26/50/155 79/91/41 78/90/58
f 26/50/155 25/36/156 80/92/42 79/91/41
f 25/36/156 18/42/157 81/93/25 80/92/42
f 18/42/157 17/28/158 82/94/26 81/93/25
f 17/28/158 10/34/159 83/95/9 82/94/26
f 10/34/159 9/20/160 84/96/10 83/95/9
f 9/20/160 97/110/161 98/111/162 84/96/10
s 1
f 86/99/3 85/97/2 7/26/163 3/1/164
s 5
f 16/3/165 87/100/17 103/116/102 104/117/166
f 88/101/18 87/100/17 16/3/165 15/33/167
f 24/5/168 89/102/33 88/101/18 15/33/167
f 90/103/34 89/102/33 24/5/168 23/41/169
f 32/7/170 91/104/49 90/103/34 23/41/169
f 92/105/50 91/104/49 32/7/170 31/49/171
f 40/9/172 93/106/65 92/105/50 31/49/171
f 94/107/66 93/106/65 40/9/172 39/57/173
f 48/11/174 95/108/81 94/107/66 39/57/173
f 96/109/82 95/108/81 48/11/174 47/14/175
f 4/12/176 73/85/85 96/109/82 47/14/175
s 3
f 98/111/162 97/110/161 7/26/177 85/97/178
f 99/112/123 98/111/162 85/97/178 50/62/179
f 100/113/124 99/112/123 50/62/179 8/21/180
s 4
f 101/114/100 100/113/99 8/21/181 2/23/182
s 5
f 49/60/183 102/115/101 101/114/148 2/23/184
f 86/98/185 103/116/102 102/115/101 49/60/183
f 104/117/166 103/116/102 86/98/185 3/25/186
s 2
f 3/1/187 7/26/188 97/110/104 104/118/103
s off
f 51/63/189 84/96/190 105/120/191 106/119/192
f 84/96/193 98/111/194 107/121/195 105/120/196
f 98/111/197 99/112/198 108/122/199 107/121/200
f 99/112/201 51/63/202 106/119/203 108/122/204
f 53/65/205 82/94/206 109/124/207 110/123/208
f 82/94/209 83/95/210 111/125/211 109/124/212
f 83/95/213 52/64/214 112/126/215 111/125/216
f 52/64/217 53/65/218 110/123/219 112/126/220
f 55/67/221 80/92/222 113/128/223 114/127/224
f 80/92/225 81/93/226 115/129/227 113/128/228
f 81/93/229 54/66/230 116/130/231 115/129/232
f 54/66/233 55/67/234 114/127/235 116/130/236
f 57/69/237 78/90/238 117/132/239 118/131/240
f 78/90/241 79/91/242 119/133/243 117/132/244
f 79/91/245 56/68/246 120/134/247 119/133/248
f 56/68/249 57/69/250 118/131/251 120/134/252
f 59/71/253 76/88/254 121/136/255 122/135/256
f 76/88/257 77/89/258 123/137/259 121/136/260
f 77/89/261 58/70/262 124/138/263 123/137/264
f 58/70/265 59/71/266 122/135/267 124/138/268
f 74/86/269 75/87/270 126/140/271 125/139/272
f 75/87/273 60/72/274 127/141/275 126/140/276
f 60/72/277 61/73/278 128/142/279 127/141/280
f 62/74/281 73/85/282 125/139/283 128/142/284
f 5/16/285 1/13/286 62/74/287 128/142/288
f 4/12/289 6/18/290 125/139/291 73/85/292
f 61/73/293 5/16/294 128/142/295
f 6/18/296 74/86/297 125/139/298
