# This file uses centimeters as units for non-parametric coordinates.

mtllib TableMid.mtl
g default
v 0.113228 0.164957 -0.113228
v 0.000000 0.164957 -0.160128
v -0.113228 0.164957 -0.113228
v -0.160128 0.164957 0.000000
v -0.113228 0.164957 0.113228
v 0.000000 0.164957 0.160128
v 0.113228 0.164957 0.113228
v 0.160130 0.164957 0.000000
v 0.113228 0.781894 -0.113228
v 0.000000 0.781894 -0.160128
v -0.113228 0.781894 -0.113228
v -0.160128 0.781894 0.000000
v -0.113228 0.781894 0.113228
v 0.000000 0.781894 0.160128
v 0.113228 0.781894 0.113228
v 0.160130 0.781894 0.000000
v 0.145739 0.519588 -0.145738
v 0.150776 0.408867 -0.150776
v 0.138685 0.298905 -0.138685
v 0.196131 0.298905 0.000000
v 0.213228 0.408867 0.000000
v 0.206104 0.519588 0.000000
v 0.138685 0.298905 0.138685
v 0.150776 0.408867 0.150776
v 0.145739 0.519588 0.145738
v 0.000000 0.298905 0.196130
v 0.000000 0.408867 0.213229
v 0.000000 0.519588 0.206105
v -0.138687 0.298905 0.138685
v -0.150776 0.408867 0.150776
v -0.145739 0.519588 0.145738
v -0.196129 0.298905 0.000000
v -0.213230 0.408867 0.000000
v -0.206104 0.519588 0.000000
v -0.138687 0.298905 -0.138685
v -0.150776 0.408867 -0.150776
v -0.145739 0.519588 -0.145738
v 0.000000 0.298905 -0.196130
v 0.000000 0.408867 -0.213229
v 0.000000 0.519588 -0.206105
v -1.000000 0.776989 1.000000
v 1.000000 0.776989 1.000000
v -1.000000 0.988326 1.000000
v 1.000000 0.988326 1.000000
v -1.000000 0.988326 -1.000000
v 1.000000 0.988326 -1.000000
v -1.000000 0.776989 -1.000000
v 1.000000 0.776989 -1.000000
v 0.351475 0.000000 0.464734
v 0.464733 0.000000 0.351474
v 0.351475 0.114763 0.464734
v 0.464733 0.114763 0.351474
v -0.464733 0.114763 -0.351474
v -0.351474 0.114763 -0.464734
v -0.464733 0.000000 -0.351474
v -0.351474 0.000000 -0.464734
v 0.049465 0.283689 0.162727
v -0.162727 0.283689 -0.049466
v -0.049466 0.283689 -0.162727
v 0.162727 0.283689 0.049466
v -0.049466 0.168926 -0.162727
v 0.162727 0.168926 0.049466
v -0.162727 0.168926 -0.049466
v 0.049465 0.168926 0.162727
v 0.464733 0.000000 -0.351474
v 0.351475 0.000000 -0.464734
v 0.464733 0.114763 -0.351474
v 0.351475 0.114763 -0.464734
v -0.351475 0.114763 0.464734
v -0.464734 0.114763 0.351474
v -0.351475 0.000000 0.464734
v -0.464734 0.000000 0.351474
v 0.162727 0.283689 -0.049466
v -0.049465 0.283689 0.162727
v -0.162727 0.283689 0.049466
v 0.049465 0.283689 -0.162727
v -0.162727 0.168926 0.049466
v 0.049465 0.168926 -0.162727
v -0.049465 0.168926 0.162727
v 0.162727 0.168926 -0.049466
vt 0.625000 0.415892
vt 0.375000 0.312500
vt 0.406250 0.312500
vt 0.375000 0.415892
vt 0.437500 0.312500
vt 0.406250 0.415892
vt 0.468750 0.312500
vt 0.437500 0.415892
vt 0.500000 0.312500
vt 0.468750 0.415892
vt 0.531250 0.312500
vt 0.500000 0.415892
vt 0.562500 0.312500
vt 0.531250 0.415892
vt 0.593750 0.312500
vt 0.562500 0.415892
vt 0.625000 0.312500
vt 0.593750 0.415892
vt 0.625000 0.556400
vt 0.625000 0.688440
vt 0.593750 0.688440
vt 0.593750 0.556400
vt 0.562500 0.688440
vt 0.562500 0.556400
vt 0.531250 0.688440
vt 0.531250 0.556400
vt 0.500000 0.688440
vt 0.500000 0.556400
vt 0.468750 0.688440
vt 0.468750 0.556400
vt 0.437500 0.688440
vt 0.437500 0.556400
vt 0.406250 0.688440
vt 0.406250 0.556400
vt 0.375000 0.688439
vt 0.375000 0.556400
vt 0.375000 0.500470
vt 0.625000 0.500470
vt 0.593750 0.500470
vt 0.562500 0.500470
vt 0.531250 0.500470
vt 0.500000 0.500470
vt 0.468750 0.500470
vt 0.437500 0.500470
vt 0.406250 0.500470
vt 0.375000 0.000000
vt 0.625000 0.000000
vt 0.625000 0.250000
vt 0.375000 0.250000
vt 0.625000 0.500000
vt 0.375000 0.500000
vt 0.625000 0.750000
vt 0.375000 0.750000
vt 0.625000 1.000000
vt 0.375000 1.000000
vt 0.875000 0.000000
vt 0.875000 0.250000
vt 0.125000 0.000000
vt 0.125000 0.250000
vt 0.375000 0.000000
vt 0.625000 0.000000
vt 0.625000 0.250000
vt 0.375000 0.250000
vt 0.375000 0.500000
vt 0.625000 0.500000
vt 0.625000 0.750000
vt 0.375000 0.750000
vt 0.250000 0.044796
vt 0.217503 0.250000
vt 0.217503 0.000000
vt 0.282497 0.000000
vt 0.375000 0.407497
vt 0.375000 0.342503
vt 0.625000 0.342503
vt 0.625000 0.407497
vt 0.782497 0.250000
vt 0.750000 0.044796
vt 0.717503 0.000000
vt 0.782497 0.000000
vt 0.625000 0.842503
vt 0.625000 0.859489
vt 0.375000 0.859489
vt 0.375000 0.842503
vt 0.875000 0.000000
vt 0.875000 0.250000
vt 0.125000 0.000000
vt 0.125000 0.250000
vt 0.717503 0.250000
vt 0.375000 0.907497
vt 0.625000 0.907497
vt 0.625000 1.000000
vt 0.375000 1.000000
vt 0.282497 0.250000
vt 0.375000 0.000000
vt 0.625000 0.000000
vt 0.625000 0.250000
vt 0.375000 0.250000
vt 0.375000 0.500000
vt 0.625000 0.500000
vt 0.625000 0.750000
vt 0.375000 0.750000
vt 0.250000 0.044796
vt 0.217503 0.250000
vt 0.217503 0.000000
vt 0.282497 0.000000
vt 0.375000 0.407497
vt 0.375000 0.342503
vt 0.625000 0.342503
vt 0.625000 0.407497
vt 0.782497 0.250000
vt 0.750000 0.044796
vt 0.717503 0.000000
vt 0.782497 0.000000
vt 0.625000 0.842503
vt 0.625000 0.859489
vt 0.375000 0.859489
vt 0.375000 0.842503
vt 0.875000 0.000000
vt 0.875000 0.250000
vt 0.125000 0.000000
vt 0.125000 0.250000
vt 0.717503 0.250000
vt 0.375000 0.907497
vt 0.625000 0.907497
vt 0.625000 1.000000
vt 0.375000 1.000000
vt 0.282497 0.250000
vn 0.691887 -0.206355 -0.691888
vn 0.706465 -0.042607 -0.706464
vn 0.999092 -0.042605 -0.000000
vn 0.978478 -0.206353 0.000000
vn 0.700498 0.136404 -0.700497
vn 0.990654 0.136402 0.000000
vn 0.682870 -0.259560 -0.682874
vn 0.000000 -0.259561 -0.965727
vn -0.000000 -0.206357 -0.978477
vn -0.682872 -0.259565 -0.682871
vn -0.691890 -0.206359 -0.691884
vn -0.965726 -0.259564 0.000000
vn -0.978476 -0.206360 0.000000
vn -0.682872 -0.259565 0.682871
vn -0.691890 -0.206359 0.691884
vn 0.000000 -0.259562 0.965727
vn -0.000000 -0.206357 0.978477
vn 0.682870 -0.259560 0.682874
vn 0.691887 -0.206355 0.691888
vn 0.965727 -0.259561 0.000000
vn 0.696489 0.172646 -0.696489
vn 0.984984 0.172644 0.000000
vn 0.700498 0.136404 0.700497
vn 0.696489 0.172646 0.696489
vn -0.000000 0.136405 0.990653
vn 0.000000 0.172648 0.984984
vn -0.700499 0.136406 0.700496
vn -0.696491 0.172648 0.696487
vn -0.990653 0.136407 -0.000000
vn -0.984984 0.172647 0.000000
vn -0.700499 0.136406 -0.700496
vn -0.696490 0.172648 -0.696487
vn 0.000000 0.136405 -0.990653
vn 0.000000 0.172647 -0.984984
vn 0.706465 -0.042607 0.706464
vn -0.000000 -0.042609 0.999092
vn -0.706464 -0.042607 0.706465
vn -0.999092 -0.042605 -0.000000
vn -0.706464 -0.042607 -0.706466
vn 0.000000 -0.042609 -0.999092
vn 0.000000 0.000000 1.000000
vn 0.000000 0.000000 1.000000
vn 0.000000 0.000000 1.000000
vn 0.000000 0.000000 1.000000
vn 0.000000 1.000000 0.000000
vn 0.000000 1.000000 0.000000
vn 0.000000 1.000000 0.000000
vn 0.000000 1.000000 0.000000
vn 0.000000 0.000000 -1.000000
vn 0.000000 0.000000 -1.000000
vn 0.000000 0.000000 -1.000000
vn 0.000000 0.000000 -1.000000
vn 0.000000 -1.000000 0.000000
vn 0.000000 -1.000000 0.000000
vn 0.000000 -1.000000 0.000000
vn 0.000000 -1.000000 0.000000
vn 1.000000 0.000000 0.000000
vn 1.000000 0.000000 0.000000
vn 1.000000 0.000000 0.000000
vn 1.000000 0.000000 0.000000
vn -1.000000 0.000000 0.000000
vn -1.000000 0.000000 0.000000
vn -1.000000 0.000000 0.000000
vn -1.000000 0.000000 0.000000
vn 0.707114 0.000000 0.707100
vn 0.707114 0.000000 0.707100
vn 0.707114 0.000000 0.707100
vn 0.707114 0.000000 0.707100
vn -0.707112 0.000000 -0.707102
vn -0.707112 0.000000 -0.707102
vn -0.707112 0.000000 -0.707102
vn -0.707112 0.000000 -0.707102
vn -0.707106 0.000000 0.707108
vn -0.707108 0.000000 0.707105
vn -0.707108 0.000000 0.707105
vn -0.707105 0.000000 0.707108
vn -0.160001 0.974064 -0.160000
vn 0.160000 0.974064 0.159999
vn 0.160001 0.974064 0.160000
vn -0.160000 0.974064 -0.160000
vn 0.707106 0.000000 -0.707107
vn 0.707108 0.000000 -0.707106
vn 0.707108 0.000000 -0.707105
vn 0.707106 0.000000 -0.707108
vn 0.160000 -0.974064 0.159999
vn -0.160001 -0.974064 -0.160000
vn -0.160000 -0.974064 -0.159999
vn 0.160001 -0.974064 0.160000
vn -0.260070 0.929908 -0.260069
vn -0.260070 0.929908 -0.260069
vn 0.260070 -0.929908 0.260069
vn 0.260070 -0.929908 0.260069
vn 0.707106 0.000000 -0.707108
vn 0.707106 0.000000 -0.707108
vn -0.707109 0.000000 0.707105
vn -0.707109 0.000000 0.707105
vn 0.260069 0.929908 0.260069
vn 0.260069 0.929908 0.260069
vn 0.707109 0.000000 -0.707105
vn 0.707109 0.000000 -0.707105
vn -0.260069 -0.929908 -0.260069
vn -0.260069 -0.929908 -0.260069
vn -0.707104 0.000000 0.707109
vn -0.707104 0.000000 0.707109
vn 0.707114 0.000000 -0.707100
vn 0.707114 0.000000 -0.707100
vn 0.707114 0.000000 -0.707100
vn 0.707114 0.000000 -0.707100
vn -0.707112 0.000000 0.707102
vn -0.707112 0.000000 0.707102
vn -0.707112 0.000000 0.707102
vn -0.707112 0.000000 0.707102
vn 0.707108 0.000000 0.707105
vn 0.707106 0.000000 0.707108
vn 0.707105 0.000000 0.707108
vn 0.707108 0.000000 0.707105
vn -0.160000 0.974064 0.159999
vn 0.160001 0.974064 -0.160000
vn 0.160000 0.974064 -0.159999
vn -0.160001 0.974064 0.160000
vn -0.707108 0.000000 -0.707106
vn -0.707106 0.000000 -0.707107
vn -0.707106 0.000000 -0.707108
vn -0.707108 0.000000 -0.707106
vn 0.160001 -0.974064 -0.160000
vn -0.160000 -0.974064 0.159999
vn -0.160001 -0.974064 0.160000
vn 0.160000 -0.974064 -0.159999
vn -0.260069 0.929908 0.260068
vn -0.260069 0.929908 0.260068
vn 0.260069 -0.929908 -0.260068
vn 0.260069 -0.929908 -0.260068
vn -0.707108 0.000000 -0.707106
vn -0.707108 0.000000 -0.707106
vn 0.707104 0.000000 0.707109
vn 0.707104 0.000000 0.707109
vn 0.260069 0.929908 -0.260069
vn 0.260069 0.929908 -0.260069
vn -0.707104 0.000000 -0.707109
vn -0.707104 0.000000 -0.707109
vn -0.260069 -0.929908 0.260069
vn -0.260069 -0.929908 0.260069
vn 0.707109 0.000000 0.707105
vn 0.707109 0.000000 0.707105
s 1
g TableMid
usemtl initialShadingGroup
f 19/1/1 18/38/2 21/39/3 20/18/4
f 18/38/2 17/19/5 22/22/6 21/39/3
f 1/2/7 2/3/8 38/6/9 19/4/1
f 2/3/8 3/5/10 35/8/11 38/6/9
f 3/5/10 4/7/12 32/10/13 35/8/11
f 4/7/12 5/9/14 29/12/15 32/10/13
f 5/9/14 6/11/16 26/14/17 29/12/15
f 6/11/16 7/13/18 23/16/19 26/14/17
f 7/13/18 8/15/20 20/18/4 23/16/19
f 8/15/20 1/17/7 19/1/1 20/18/4
f 22/22/6 17/19/5 9/20/21 16/21/22
f 25/24/23 22/22/6 16/21/22 15/23/24
f 28/26/25 25/24/23 15/23/24 14/25/26
f 31/28/27 28/26/25 14/25/26 13/27/28
f 34/30/29 31/28/27 13/27/28 12/29/30
f 37/32/31 34/30/29 12/29/30 11/31/32
f 40/34/33 37/32/31 11/31/32 10/33/34
f 17/36/5 40/34/33 10/33/34 9/35/21
f 20/18/4 21/39/3 24/40/35 23/16/19
f 21/39/3 22/22/6 25/24/23 24/40/35
f 23/16/19 24/40/35 27/41/36 26/14/17
f 24/40/35 25/24/23 28/26/25 27/41/36
f 26/14/17 27/41/36 30/42/37 29/12/15
f 27/41/36 28/26/25 31/28/27 30/42/37
f 29/12/15 30/42/37 33/43/38 32/10/13
f 30/42/37 31/28/27 34/30/29 33/43/38
f 32/10/13 33/43/38 36/44/39 35/8/11
f 33/43/38 34/30/29 37/32/31 36/44/39
f 35/8/11 36/44/39 39/45/40 38/6/9
f 36/44/39 37/32/31 40/34/33 39/45/40
f 17/36/5 18/37/2 39/45/40 40/34/33
f 18/37/2 19/4/1 38/6/9 39/45/40
s off
f 41/46/41 42/47/42 44/48/43 43/49/44
f 43/49/45 44/48/46 46/50/47 45/51/48
f 45/51/49 46/50/50 48/52/51 47/53/52
f 47/53/53 48/52/54 42/54/55 41/55/56
f 42/47/57 48/56/58 46/57/59 44/48/60
f 47/58/61 41/46/62 43/49/63 45/59/64
f 49/60/65 50/61/66 52/62/67 51/63/68
f 53/64/69 54/65/70 56/66/71 55/67/72
s 3
f 57/68/73 58/69/74 63/70/75 64/71/76
s 4
f 58/72/77 57/73/78 60/74/79 59/75/80
s 5
f 59/76/81 60/77/82 62/78/83 61/79/84
s 6
f 61/80/85 62/81/86 64/82/87 63/83/88
s 4
f 58/72/77 59/75/80 54/65/89 53/64/90
s 6
f 55/67/91 56/66/92 61/80/85 63/83/88
s 5
f 59/76/81 61/79/84 56/84/93 54/85/94
s 3
f 55/86/95 63/70/75 58/69/74 53/87/96
s 4
f 51/63/97 52/62/98 60/74/79 57/73/78
s 5
f 50/61/99 62/78/83 60/88/82 52/62/100
s 6
f 64/89/87 62/90/86 50/91/101 49/92/102
s 3
f 57/93/73 64/71/76 49/60/103 51/63/104
s off
f 65/94/105 66/95/106 68/96/107 67/97/108
f 69/98/109 70/99/110 72/100/111 71/101/112
s 7
f 73/102/113 74/103/114 79/104/115 80/105/116
s 8
f 74/106/117 73/107/118 76/108/119 75/109/120
s 9
f 75/110/121 76/111/122 78/112/123 77/113/124
s 10
f 77/114/125 78/115/126 80/116/127 79/117/128
s 8
f 74/106/117 75/109/120 70/99/129 69/98/130
s 10
f 71/101/131 72/100/132 77/114/125 79/117/128
s 9
f 75/110/121 77/113/124 72/118/133 70/119/134
s 7
f 71/120/135 79/104/115 74/103/114 69/121/136
s 8
f 67/97/137 68/96/138 76/108/119 73/107/118
s 9
f 66/95/139 78/112/123 76/122/122 68/96/140
s 10
f 80/123/127 78/124/126 66/125/141 65/126/142
s 7
f 73/127/113 80/105/116 65/94/143 67/97/144
