# This file uses centimeters as units for non-parametric coordinates.

mtllib TableEnd.mtl
g default
v 1.000000 0.776989 1.000000
v 1.000000 0.988326 1.000000
v 1.000000 0.988326 -1.000000
v 1.000000 0.776989 -1.000000
v -1.000000 0.776989 0.770023
v -0.770023 0.776989 1.000000
v -0.885012 0.776989 0.969189
v -0.969189 0.776989 0.885011
v -1.000000 0.988326 0.770023
v -0.969189 0.988326 0.885011
v -0.885012 0.988326 0.969189
v -0.770023 0.988326 1.000000
v -0.885012 0.988326 -0.969189
v -0.969189 0.988326 -0.885011
v -1.000000 0.988326 -0.770023
v -0.770023 0.988326 -1.000000
v -1.000000 0.776989 -0.770023
v -0.969189 0.776989 -0.885011
v -0.885012 0.776989 -0.969189
v -0.770023 0.776989 -1.000000
v 0.113229 0.164957 -0.113228
v 0.000000 0.164957 -0.160128
v -0.113228 0.164957 -0.113228
v -0.160128 0.164957 0.000000
v -0.113228 0.164957 0.113228
v 0.000000 0.164957 0.160128
v 0.113229 0.164957 0.113228
v 0.160130 0.164957 0.000000
v 0.113229 0.781894 -0.113228
v 0.000000 0.781894 -0.160128
v -0.113228 0.781894 -0.113228
v -0.160128 0.781894 0.000000
v -0.113228 0.781894 0.113228
v 0.000000 0.781894 0.160128
v 0.113229 0.781894 0.113228
v 0.160130 0.781894 0.000000
v 0.145740 0.519588 -0.145738
v 0.150776 0.408867 -0.150776
v 0.138685 0.298905 -0.138685
v 0.196131 0.298905 0.000000
v 0.213228 0.408867 0.000000
v 0.206105 0.519588 0.000000
v 0.138685 0.298905 0.138685
v 0.150776 0.408867 0.150776
v 0.145740 0.519588 0.145738
v 0.000000 0.298905 0.196130
v 0.000000 0.408867 0.213229
v 0.000000 0.519588 0.206105
v -0.138685 0.298905 0.138685
v -0.150776 0.408867 0.150776
v -0.145739 0.519588 0.145738
v -0.196128 0.298905 0.000000
v -0.213229 0.408867 0.000000
v -0.206104 0.519588 0.000000
v -0.138685 0.298905 -0.138685
v -0.150776 0.408867 -0.150776
v -0.145739 0.519588 -0.145738
v 0.000000 0.298905 -0.196130
v 0.000000 0.408867 -0.213229
v 0.000000 0.519588 -0.206105
v 0.464734 0.000000 -0.351474
v 0.351474 0.000000 -0.464734
v 0.464734 0.114763 -0.351474
v 0.351474 0.114763 -0.464734
v -0.351474 0.114763 0.464734
v -0.464734 0.114763 0.351474
v -0.351474 0.000000 0.464734
v -0.464734 0.000000 0.351474
v 0.162726 0.283689 -0.049466
v -0.049466 0.283689 0.162727
v -0.162726 0.283689 0.049466
v 0.049466 0.283689 -0.162727
v -0.162726 0.168926 0.049466
v 0.049466 0.168926 -0.162727
v -0.049466 0.168926 0.162727
v 0.162726 0.168926 -0.049466
v 0.351474 0.000000 0.464734
v 0.464734 0.000000 0.351474
v 0.351474 0.114763 0.464734
v 0.464734 0.114763 0.351474
v -0.464734 0.114763 -0.351474
v -0.351474 0.114763 -0.464734
v -0.464734 0.000000 -0.351474
v -0.351474 0.000000 -0.464734
v 0.049466 0.283689 0.162727
v -0.162726 0.283689 -0.049466
v -0.049466 0.283689 -0.162727
v 0.162726 0.283689 0.049466
v -0.049466 0.168926 -0.162727
v 0.162726 0.168926 0.049466
v -0.162726 0.168926 -0.049466
v 0.049466 0.168926 0.162727
vt 0.625000 0.000000
vt 0.875000 0.000000
vt 0.875000 0.250000
vt 0.403747 0.000000
vt 0.625000 0.250000
vt 0.153747 0.000000
vt 0.346253 0.250000
vt 0.625000 0.750000
vt 0.346253 0.000000
vt 0.403747 0.250000
vt 0.153747 0.250000
vt 0.403747 0.750000
vt 0.375000 0.471253
vt 0.375000 0.278747
vt 0.625000 0.500000
vt 0.403747 0.500000
vt 0.625000 1.000000
vt 0.403747 1.000000
vt 0.375000 0.971253
vt 0.375000 0.778747
vt 0.394165 0.990418
vt 0.384582 -0.000000
vt 0.384582 0.980835
vt 0.365418 -0.000000
vt 0.375000 0.250000
vt 0.387888 0.242950
vt 0.388487 0.502673
vt 0.375000 0.500000
vt 0.125000 0.250000
vt 0.375000 0.750000
vt 0.125000 0.000000
vt 0.389301 0.729770
vt 0.625000 0.415892
vt 0.625000 0.500470
vt 0.593750 0.500470
vt 0.593750 0.415892
vt 0.625000 0.556400
vt 0.593750 0.556400
vt 0.375000 0.312500
vt 0.406250 0.312500
vt 0.406250 0.415892
vt 0.375000 0.415892
vt 0.437500 0.312500
vt 0.437500 0.415892
vt 0.468750 0.312500
vt 0.468750 0.415892
vt 0.500000 0.312500
vt 0.500000 0.415892
vt 0.531250 0.312500
vt 0.531250 0.415892
vt 0.562500 0.312500
vt 0.562500 0.415892
vt 0.593750 0.312500
vt 0.625000 0.312500
vt 0.625000 0.688440
vt 0.593750 0.688440
vt 0.562500 0.556400
vt 0.562500 0.688440
vt 0.531250 0.556400
vt 0.531250 0.688440
vt 0.500000 0.556400
vt 0.500000 0.688440
vt 0.468750 0.556400
vt 0.468750 0.688440
vt 0.437500 0.556400
vt 0.437500 0.688440
vt 0.406250 0.556400
vt 0.406250 0.688440
vt 0.375000 0.556400
vt 0.375000 0.688439
vt 0.562500 0.500470
vt 0.531250 0.500470
vt 0.500000 0.500470
vt 0.468750 0.500470
vt 0.437500 0.500470
vt 0.406250 0.500470
vt 0.375000 0.500470
vt 0.375000 0.000000
vt 0.625000 0.000000
vt 0.625000 0.250000
vt 0.375000 0.250000
vt 0.375000 0.500000
vt 0.625000 0.500000
vt 0.625000 0.750000
vt 0.375000 0.750000
vt 0.250000 0.044796
vt 0.217503 0.250000
vt 0.217503 0.000000
vt 0.282497 0.000000
vt 0.375000 0.407497
vt 0.375000 0.342503
vt 0.625000 0.342503
vt 0.625000 0.407497
vt 0.782497 0.250000
vt 0.750000 0.044796
vt 0.717503 0.000000
vt 0.782497 0.000000
vt 0.625000 0.842503
vt 0.625000 0.859489
vt 0.375000 0.859489
vt 0.375000 0.842503
vt 0.875000 0.000000
vt 0.875000 0.250000
vt 0.125000 0.000000
vt 0.125000 0.250000
vt 0.717503 0.250000
vt 0.375000 0.907497
vt 0.625000 0.907497
vt 0.625000 1.000000
vt 0.375000 1.000000
vt 0.282497 0.250000
vt 0.375000 0.000000
vt 0.625000 0.000000
vt 0.625000 0.250000
vt 0.375000 0.250000
vt 0.375000 0.500000
vt 0.625000 0.500000
vt 0.625000 0.750000
vt 0.375000 0.750000
vt 0.250000 0.044796
vt 0.217503 0.250000
vt 0.217503 0.000000
vt 0.282497 0.000000
vt 0.375000 0.407497
vt 0.375000 0.342503
vt 0.625000 0.342503
vt 0.625000 0.407497
vt 0.782497 0.250000
vt 0.750000 0.044796
vt 0.717503 0.000000
vt 0.782497 0.000000
vt 0.625000 0.842503
vt 0.625000 0.859489
vt 0.375000 0.859489
vt 0.375000 0.842503
vt 0.875000 0.000000
vt 0.875000 0.250000
vt 0.125000 0.000000
vt 0.125000 0.250000
vt 0.717503 0.250000
vt 0.375000 0.907497
vt 0.625000 0.907497
vt 0.625000 1.000000
vt 0.375000 1.000000
vt 0.282497 0.250000
vn -0.016343 0.000000 0.999866
vn -0.016343 0.000000 0.999866
vn 0.000000 0.000000 1.000000
vn 0.000000 0.000000 1.000000
vn -0.016343 0.000000 -0.999866
vn -0.016343 0.000000 -0.999866
vn 0.000000 0.000000 -1.000000
vn 0.000000 0.000000 -1.000000
vn 1.000000 0.000000 0.000000
vn 1.000000 0.000000 0.000000
vn 1.000000 0.000000 0.000000
vn 1.000000 0.000000 0.000000
vn -0.999827 0.000000 -0.018613
vn -0.999827 0.000000 -0.018613
vn -0.999827 0.000000 0.018613
vn -0.999827 0.000000 0.018613
vn -0.866026 0.000000 0.499999
vn -0.866026 0.000000 0.499999
vn -0.500001 0.000000 0.866025
vn -0.500001 0.000000 0.866025
vn -0.866026 0.000000 -0.499999
vn -0.866026 0.000000 -0.499999
vn -0.500001 0.000000 -0.866025
vn -0.500001 0.000000 -0.866025
vn 0.000000 1.000000 0.000000
vn 0.000000 1.000000 0.000000
vn 0.000000 1.000000 0.000000
vn 0.000000 1.000000 0.000000
vn 0.000000 1.000000 0.000000
vn 0.000000 1.000000 0.000000
vn 0.000000 1.000000 0.000000
vn 0.000000 1.000000 0.000000
vn 0.000000 1.000000 0.000000
vn 0.000000 1.000000 0.000000
vn 0.000000 -1.000000 0.000000
vn 0.000000 -1.000000 0.000000
vn 0.000000 -1.000000 0.000000
vn 0.000000 -1.000000 0.000000
vn 0.000000 -1.000000 0.000000
vn 0.000000 -1.000000 0.000000
vn 0.000000 -1.000000 0.000000
vn 0.000000 -1.000000 0.000000
vn 0.000000 -1.000000 0.000000
vn 0.000000 -1.000000 0.000000
vn 0.691887 -0.206354 -0.691889
vn 0.706464 -0.042610 -0.706465
vn 0.999092 -0.042609 -0.000000
vn 0.978478 -0.206352 -0.000000
vn 0.700498 0.136403 -0.700498
vn 0.990654 0.136401 -0.000000
vn 0.682871 -0.259558 -0.682874
vn -0.000000 -0.259560 -0.965727
vn -0.000000 -0.206357 -0.978477
vn -0.682875 -0.259560 -0.682870
vn -0.691890 -0.206359 -0.691885
vn -0.965728 -0.259556 0.000000
vn -0.978476 -0.206359 0.000000
vn -0.682875 -0.259560 0.682870
vn -0.691890 -0.206359 0.691885
vn -0.000000 -0.259560 0.965727
vn 0.000000 -0.206357 0.978477
vn 0.682871 -0.259558 0.682874
vn 0.691887 -0.206354 0.691889
vn 0.965728 -0.259558 -0.000000
vn 0.696488 0.172647 -0.696490
vn 0.984984 0.172645 0.000000
vn 0.700498 0.136403 0.700498
vn 0.696488 0.172647 0.696490
vn 0.000000 0.136405 0.990653
vn -0.000000 0.172647 0.984984
vn -0.700499 0.136406 0.700496
vn -0.696490 0.172648 0.696487
vn -0.990653 0.136406 0.000000
vn -0.984984 0.172647 -0.000000
vn -0.700499 0.136406 -0.700496
vn -0.696490 0.172648 -0.696487
vn 0.000000 0.136404 -0.990653
vn -0.000000 0.172647 -0.984984
vn 0.706464 -0.042610 0.706465
vn 0.000000 -0.042610 0.999092
vn -0.706466 -0.042610 0.706463
vn -0.999092 -0.042611 0.000000
vn -0.706466 -0.042610 -0.706464
vn -0.000000 -0.042610 -0.999092
vn 0.707108 0.000000 -0.707106
vn 0.707108 0.000000 -0.707106
vn 0.707108 0.000000 -0.707106
vn 0.707108 0.000000 -0.707106
vn -0.707108 0.000000 0.707106
vn -0.707108 0.000000 0.707106
vn -0.707108 0.000000 0.707106
vn -0.707108 0.000000 0.707106
vn 0.707107 0.000000 0.707106
vn 0.707107 0.000000 0.707107
vn 0.707107 0.000000 0.707107
vn 0.707107 0.000000 0.707107
vn -0.160001 0.974063 0.160001
vn 0.160001 0.974064 -0.160000
vn 0.160001 0.974063 -0.160001
vn -0.160001 0.974064 0.160000
vn -0.707107 0.000000 -0.707106
vn -0.707107 0.000000 -0.707107
vn -0.707107 0.000000 -0.707107
vn -0.707107 0.000000 -0.707107
vn 0.160001 -0.974064 -0.160000
vn -0.160001 -0.974063 0.160000
vn -0.160001 -0.974064 0.160000
vn 0.160001 -0.974064 -0.160001
vn -0.260069 0.929908 0.260069
vn -0.260069 0.929908 0.260069
vn 0.260069 -0.929908 -0.260069
vn 0.260069 -0.929908 -0.260069
vn -0.707107 0.000000 -0.707107
vn -0.707107 0.000000 -0.707107
vn 0.707107 0.000000 0.707107
vn 0.707107 0.000000 0.707107
vn 0.260069 0.929908 -0.260069
vn 0.260069 0.929908 -0.260069
vn -0.707107 0.000000 -0.707107
vn -0.707107 0.000000 -0.707107
vn -0.260069 -0.929908 0.260069
vn -0.260069 -0.929908 0.260069
vn 0.707107 0.000000 0.707107
vn 0.707107 0.000000 0.707107
vn 0.707108 0.000000 0.707106
vn 0.707108 0.000000 0.707106
vn 0.707108 0.000000 0.707106
vn 0.707108 0.000000 0.707106
vn -0.707108 0.000000 -0.707106
vn -0.707108 0.000000 -0.707106
vn -0.707108 0.000000 -0.707106
vn -0.707108 0.000000 -0.707106
vn -0.707107 0.000000 0.707107
vn -0.707107 0.000000 0.707107
vn -0.707107 0.000000 0.707107
vn -0.707107 0.000000 0.707107
vn -0.160001 0.974064 -0.160000
vn 0.160001 0.974063 0.160001
vn 0.160001 0.974064 0.160000
vn -0.160001 0.974063 -0.160001
vn 0.707107 0.000000 -0.707107
vn 0.707107 0.000000 -0.707107
vn 0.707107 0.000000 -0.707107
vn 0.707107 0.000000 -0.707107
vn 0.160001 -0.974063 0.160001
vn -0.160001 -0.974064 -0.160000
vn -0.160001 -0.974063 -0.160001
vn 0.160001 -0.974064 0.160000
vn -0.260069 0.929908 -0.260069
vn -0.260069 0.929908 -0.260069
vn 0.260069 -0.929908 0.260069
vn 0.260069 -0.929908 0.260069
vn 0.707107 0.000000 -0.707107
vn 0.707107 0.000000 -0.707107
vn -0.707107 0.000000 0.707107
vn -0.707107 0.000000 0.707107
vn 0.260069 0.929908 0.260069
vn 0.260069 0.929908 0.260069
vn 0.707107 0.000000 -0.707107
vn 0.707107 0.000000 -0.707107
vn -0.260069 -0.929908 -0.260069
vn -0.260069 -0.929908 -0.260069
vn -0.707107 0.000000 0.707107
vn -0.707107 0.000000 0.707107
s 1
g TableEnd
usemtl initialShadingGroup
f 12/10/1 6/4/2 1/1/3 2/5/4
f 20/12/5 16/16/6 3/15/7 4/8/8
s off
f 1/1/9 4/2/10 3/3/11 2/5/12
s 1
f 15/11/13 17/6/14 5/9/15 9/7/16
f 5/9/15 8/24/17 10/25/18 9/7/16
f 8/24/17 7/22/19 11/26/20 10/25/18
f 7/22/19 6/4/2 12/10/1 11/26/20
f 15/11/13 14/29/21 18/31/22 17/6/14
f 14/28/21 13/27/23 19/32/24 18/30/22
f 13/27/23 16/16/6 20/12/5 19/32/24
s off
f 13/27/25 14/28/26 15/13/27 9/14/28 10/25/29 11/26/30 12/10/31 2/5/32 3/15/33 16/16/34
f 4/8/35 1/17/36 6/18/37 7/21/38 8/23/39 5/19/40 17/20/41 18/30/42 19/32/43 20/12/44
s 4
f 39/33/45 38/34/46 41/35/47 40/36/48
f 38/34/46 37/37/49 42/38/50 41/35/47
f 21/39/51 22/40/52 58/41/53 39/42/45
f 22/40/52 23/43/54 55/44/55 58/41/53
f 23/43/54 24/45/56 52/46/57 55/44/55
f 24/45/56 25/47/58 49/48/59 52/46/57
f 25/47/58 26/49/60 46/50/61 49/48/59
f 26/49/60 27/51/62 43/52/63 46/50/61
f 27/51/62 28/53/64 40/36/48 43/52/63
f 28/53/64 21/54/51 39/33/45 40/36/48
f 42/38/50 37/37/49 29/55/65 36/56/66
f 45/57/67 42/38/50 36/56/66 35/58/68
f 48/59/69 45/57/67 35/58/68 34/60/70
f 51/61/71 48/59/69 34/60/70 33/62/72
f 54/63/73 51/61/71 33/62/72 32/64/74
f 57/65/75 54/63/73 32/64/74 31/66/76
f 60/67/77 57/65/75 31/66/76 30/68/78
f 37/69/49 60/67/77 30/68/78 29/70/65
f 40/36/48 41/35/47 44/71/79 43/52/63
f 41/35/47 42/38/50 45/57/67 44/71/79
f 43/52/63 44/71/79 47/72/80 46/50/61
f 44/71/79 45/57/67 48/59/69 47/72/80
f 46/50/61 47/72/80 50/73/81 49/48/59
f 47/72/80 48/59/69 51/61/71 50/73/81
f 49/48/59 50/73/81 53/74/82 52/46/57
f 50/73/81 51/61/71 54/63/73 53/74/82
f 52/46/57 53/74/82 56/75/83 55/44/55
f 53/74/82 54/63/73 57/65/75 56/75/83
f 55/44/55 56/75/83 59/76/84 58/41/53
f 56/75/83 57/65/75 60/67/77 59/76/84
f 37/69/49 38/77/46 59/76/84 60/67/77
f 38/77/46 39/42/45 58/41/53 59/76/84
s off
f 61/78/85 62/79/86 64/80/87 63/81/88
f 65/82/89 66/83/90 68/84/91 67/85/92
s 6
f 69/86/93 70/87/94 75/88/95 76/89/96
s 7
f 70/90/97 69/91/98 72/92/99 71/93/100
s 8
f 71/94/101 72/95/102 74/96/103 73/97/104
s 9
f 73/98/105 74/99/106 76/100/107 75/101/108
s 7
f 70/90/97 71/93/100 66/83/109 65/82/110
s 9
f 67/85/111 68/84/112 73/98/105 75/101/108
s 8
f 71/94/101 73/97/104 68/102/113 66/103/114
s 6
f 67/104/115 75/88/95 70/87/94 65/105/116
s 7
f 63/81/117 64/80/118 72/92/99 69/91/98
s 8
f 62/79/119 74/96/103 72/106/102 64/80/120
s 9
f 76/107/107 74/108/106 62/109/121 61/110/122
s 6
f 69/111/93 76/89/96 61/78/123 63/81/124
s off
f 77/112/125 78/113/126 80/114/127 79/115/128
f 81/116/129 82/117/130 84/118/131 83/119/132
s 10
f 85/120/133 86/121/134 91/122/135 92/123/136
s 11
f 86/124/137 85/125/138 88/126/139 87/127/140
s 12
f 87/128/141 88/129/142 90/130/143 89/131/144
s 13
f 89/132/145 90/133/146 92/134/147 91/135/148
s 11
f 86/124/137 87/127/140 82/117/149 81/116/150
s 13
f 83/119/151 84/118/152 89/132/145 91/135/148
s 12
f 87/128/141 89/131/144 84/136/153 82/137/154
s 10
f 83/138/155 91/122/135 86/121/134 81/139/156
s 11
f 79/115/157 80/114/158 88/126/139 85/125/138
s 12
f 78/113/159 90/130/143 88/140/142 80/114/160
s 13
f 92/141/147 90/142/146 78/143/161 77/144/162
s 10
f 85/145/133 92/123/136 77/112/163 79/115/164
