# This file uses centimeters as units for non-parametric coordinates.

mtllib Chair1.mtl
g default
v -0.325404 0.002312 0.304373
v -0.379995 0.002312 0.338136
v -0.215467 0.471151 0.233968
v -0.267629 0.471151 0.267731
v -0.187227 0.471151 0.292447
v -0.238278 0.471151 0.326210
v -0.294849 0.002312 0.362853
v -0.348358 0.002312 0.396616
v -0.325404 0.002312 -0.304373
v -0.379995 0.002312 -0.338136
v -0.215467 0.471151 -0.233968
v -0.267629 0.471151 -0.267731
v -0.187227 0.471151 -0.292447
v -0.238278 0.471151 -0.326210
v -0.294849 0.002312 -0.362853
v -0.348358 0.002312 -0.396616
v 0.512550 0.002312 -0.367294
v 0.580075 0.002312 -0.367294
v 0.512550 0.471151 -0.367294
v 0.580075 0.471151 -0.367294
v 0.512550 0.471151 -0.434820
v 0.580075 0.471151 -0.434820
v 0.512550 0.002312 -0.434820
v 0.580075 0.002312 -0.434820
v 0.512550 0.002312 0.367294
v 0.580075 0.002312 0.367294
v 0.512550 0.471151 0.367294
v 0.580075 0.471151 0.367294
v 0.512550 0.471151 0.434820
v 0.580075 0.471151 0.434820
v 0.512550 0.002312 0.434820
v 0.580075 0.002312 0.434820
v -0.438935 0.463662 0.000000
v -0.010031 0.463662 0.447873
v -0.165429 0.463662 0.410987
v -0.304495 0.463662 0.312751
v -0.402799 0.463662 0.168624
v -0.402799 0.463662 -0.168624
v -0.304495 0.463662 -0.312751
v -0.165429 0.463662 -0.410987
v -0.010031 0.463662 -0.447873
v -0.236086 0.582843 -0.255082
v -0.130804 0.582843 -0.336246
v -0.308630 0.582843 -0.137249
v -0.333680 0.582843 0.000000
v -0.308630 0.582843 0.137249
v -0.236086 0.582843 0.255082
v -0.130804 0.582843 0.336246
v 0.054527 0.582843 0.370352
v 0.054527 0.582843 -0.370352
v 0.602871 0.463662 0.434009
v 0.572161 0.463662 0.455394
v 0.598222 0.785104 0.585362
v 0.632486 0.788409 0.555189
v -0.632486 1.224120 0.000000
v -0.603104 1.250805 0.000000
v -0.577802 1.223972 0.242440
v -0.551095 1.250805 0.231175
v -0.401936 1.250805 0.441213
v -0.424093 1.223708 0.458382
v -0.577802 1.223972 -0.242440
v -0.550978 1.250805 -0.231123
v -0.424093 1.223708 -0.458382
v -0.401936 1.250805 -0.441213
v -0.330216 1.250805 -0.376365
v -0.307250 1.226788 -0.353033
v -0.446073 1.250805 -0.201692
v -0.416513 1.227284 -0.187872
v -0.490365 1.250805 0.000000
v -0.457170 1.227141 0.000000
v -0.446157 1.250805 0.201730
v -0.416513 1.227284 0.187872
v -0.307250 1.226788 0.353033
v -0.330216 1.250805 0.376365
v -0.213451 1.217818 -0.559745
v -0.224919 1.188248 -0.586213
v -0.181850 1.216080 -0.472687
v -0.170767 1.190072 -0.439986
v -0.213451 1.217818 0.559745
v -0.224919 1.188248 0.586213
v -0.181477 1.216060 0.471676
v -0.176565 1.192546 0.436310
v 0.217526 0.923810 0.614951
v 0.234287 0.949766 0.588632
v 0.431793 0.949766 0.602438
v 0.425276 0.921279 0.628056
v 0.245628 0.949766 0.504806
v 0.236874 0.929326 0.469833
v 0.426719 0.927698 0.479153
v 0.431793 0.949766 0.513501
v 0.234287 0.949766 -0.588632
v 0.217526 0.923810 -0.614951
v 0.425276 0.921279 -0.628056
v 0.431793 0.949766 -0.602438
v 0.236874 0.929326 -0.469833
v 0.245628 0.949766 -0.504806
v 0.431793 0.949766 -0.513501
v 0.426719 0.927698 -0.479153
v 0.042392 0.992709 0.581044
v 0.036380 0.963974 0.607571
v 0.052856 0.994917 0.498999
v 0.049686 0.972763 0.463394
v 0.042392 0.992709 -0.581044
v 0.036190 0.961648 -0.606828
v 0.052769 0.994898 -0.499713
v 0.049497 0.972112 -0.463684
v 0.610588 0.582843 0.404308
v 0.613740 0.582843 0.361508
v 0.582892 0.582843 0.382641
v 0.632486 0.788409 0.477232
v 0.602571 0.785302 0.445042
v 0.602871 0.463662 -0.434009
v 0.572161 0.463662 -0.455394
v 0.632486 0.788409 -0.555189
v 0.598222 0.785104 -0.585362
v 0.582892 0.582843 -0.382641
v 0.613740 0.582843 -0.361508
v 0.610588 0.582843 -0.404308
v 0.602571 0.785302 -0.445042
v 0.632486 0.788409 -0.477232
v 0.580369 0.902505 0.594623
v 0.553250 0.882539 0.620492
v 0.557443 0.885033 0.472571
v 0.580369 0.902505 0.507644
v 0.580369 0.902505 -0.594623
v 0.551088 0.880948 -0.619691
v 0.558727 0.886012 -0.472943
v 0.580369 0.902505 -0.507644
vt 0.068050 0.293135
vt 0.070075 0.293135
vt 0.065852 0.264845
vt 0.063828 0.264845
vt 0.066568 0.293135
vt 0.064543 0.293135
vt 0.060320 0.264845
vt 0.062345 0.264845
vt 0.100165 0.293135
vt 0.104387 0.264845
vt 0.102362 0.264845
vt 0.098140 0.293135
vt 0.101647 0.293135
vt 0.105869 0.264845
vt 0.107894 0.264845
vt 0.103672 0.293135
vt 0.106136 0.293135
vt 0.106136 0.293135
vt 0.106136 0.264845
vt 0.106136 0.264845
vt 0.110186 0.293135
vt 0.110186 0.293135
vt 0.110186 0.264845
vt 0.110186 0.264845
vt 0.062079 0.293135
vt 0.062079 0.264845
vt 0.062079 0.264845
vt 0.062079 0.293135
vt 0.058029 0.293135
vt 0.058029 0.264845
vt 0.058029 0.264845
vt 0.058029 0.293135
vt 0.109089 0.714023
vt 0.108395 0.714023
vt 0.094701 0.714023
vt 0.094006 0.714023
vt 0.106742 0.714023
vt 0.096354 0.714023
vt 0.104343 0.714023
vt 0.098753 0.714023
vt 0.101548 0.714023
vt 0.092710 0.711581
vt 0.110386 0.711581
vt 0.109781 0.714023
vt 0.108909 0.714023
vt 0.094187 0.714023
vt 0.093315 0.714023
vt 0.110821 0.711581
vt 0.092275 0.711581
vt 0.092428 0.711581
vt 0.093179 0.711581
vt 0.095179 0.711581
vt 0.098114 0.711581
vt 0.101548 0.711581
vt 0.104982 0.711581
vt 0.107917 0.711581
vt 0.109917 0.711581
vt 0.110668 0.711581
vt 0.109340 0.714023
vt 0.093756 0.714023
vt 0.090243 0.718234
vt 0.089628 0.718166
vt 0.089440 0.720572
vt 0.088913 0.720163
vt 0.101548 0.727161
vt 0.101548 0.727707
vt 0.106254 0.727707
vt 0.106485 0.727158
vt 0.096611 0.727158
vt 0.096841 0.727707
vt 0.092214 0.727152
vt 0.092564 0.727707
vt 0.089611 0.726426
vt 0.090150 0.727032
vt 0.110532 0.727707
vt 0.110882 0.727152
vt 0.112946 0.727032
vt 0.113485 0.726426
vt 0.109212 0.727707
vt 0.108737 0.727215
vt 0.110507 0.726463
vt 0.111173 0.726996
vt 0.105655 0.727707
vt 0.105374 0.727226
vt 0.101548 0.727707
vt 0.101548 0.727223
vt 0.097440 0.727707
vt 0.097722 0.727226
vt 0.093884 0.727707
vt 0.094359 0.727215
vt 0.091943 0.726996
vt 0.092663 0.726514
vt 0.113380 0.722420
vt 0.113905 0.721783
vt 0.110990 0.721998
vt 0.111724 0.722465
vt 0.089176 0.721831
vt 0.089716 0.722420
vt 0.091387 0.722465
vt 0.092112 0.722011
vt 0.089026 0.721008
vt 0.089562 0.721540
vt 0.088759 0.720956
vt 0.089281 0.721540
vt 0.091269 0.721540
vt 0.091981 0.721121
vt 0.091092 0.721540
vt 0.091791 0.721088
vt 0.091211 0.720572
vt 0.091925 0.720214
vt 0.113534 0.721540
vt 0.114070 0.721008
vt 0.113815 0.721540
vt 0.114337 0.720956
vt 0.113656 0.720572
vt 0.114167 0.720130
vt 0.111115 0.721121
vt 0.111827 0.721540
vt 0.111305 0.721088
vt 0.112004 0.721540
vt 0.111179 0.720234
vt 0.111885 0.720572
vt 0.092486 0.718171
vt 0.091830 0.718234
vt 0.113468 0.718166
vt 0.112853 0.718234
vt 0.111266 0.718234
vt 0.110610 0.718171
vt 0.107998 0.527542
vt 0.108439 0.527542
vt 0.091973 0.527542
vt 0.092415 0.527542
vt 0.107568 0.527542
vt 0.092845 0.527542
vt 0.107053 0.527542
vt 0.107748 0.527542
vt 0.092665 0.527542
vt 0.093359 0.527542
vt 0.095012 0.527542
vt 0.097412 0.527542
vt 0.100206 0.527542
vt 0.103001 0.527542
vt 0.105401 0.527542
vn -0.534575 -0.000176 -0.845121
vn -0.534575 -0.000176 -0.845121
vn -0.534575 -0.000176 -0.845121
vn -0.534575 -0.000176 -0.845121
vn 0.542514 0.000194 0.840047
vn 0.542514 0.000194 0.840047
vn 0.542514 0.000194 0.840047
vn 0.542514 0.000194 0.840047
vn 0.000000 -1.000000 0.000000
vn 0.000000 -1.000000 0.000000
vn 0.000000 -1.000000 0.000000
vn 0.000000 -1.000000 0.000000
vn -0.853896 0.269437 0.445271
vn -0.853896 0.269437 0.445271
vn -0.853896 0.269437 0.445271
vn -0.853896 0.269437 0.445271
vn 0.861535 -0.264931 -0.433093
vn 0.861535 -0.264931 -0.433093
vn 0.861535 -0.264931 -0.433093
vn 0.861535 -0.264931 -0.433093
vn -0.534575 -0.000176 0.845121
vn -0.534575 -0.000176 0.845121
vn -0.534575 -0.000176 0.845121
vn -0.534575 -0.000176 0.845121
vn 0.542514 0.000194 -0.840047
vn 0.542514 0.000194 -0.840047
vn 0.542514 0.000194 -0.840047
vn 0.542514 0.000194 -0.840047
vn 0.000000 -1.000000 0.000000
vn 0.000000 -1.000000 0.000000
vn 0.000000 -1.000000 0.000000
vn 0.000000 -1.000000 0.000000
vn -0.853895 0.269437 -0.445271
vn -0.853895 0.269437 -0.445271
vn -0.853895 0.269437 -0.445271
vn -0.853895 0.269437 -0.445271
vn 0.861534 -0.264931 0.433094
vn 0.861534 -0.264931 0.433094
vn 0.861534 -0.264931 0.433094
vn 0.861534 -0.264931 0.433094
vn 0.000000 0.000000 1.000000
vn 0.000000 0.000000 1.000000
vn 0.000000 0.000000 1.000000
vn 0.000000 0.000000 1.000000
vn 0.000000 0.000000 -1.000000
vn 0.000000 0.000000 -1.000000
vn 0.000000 0.000000 -1.000000
vn 0.000000 0.000000 -1.000000
vn 0.000000 -1.000000 0.000000
vn 0.000000 -1.000000 0.000000
vn 0.000000 -1.000000 0.000000
vn 0.000000 -1.000000 0.000000
vn 1.000000 0.000000 0.000000
vn 1.000000 0.000000 0.000000
vn 1.000000 0.000000 0.000000
vn 1.000000 0.000000 0.000000
vn -1.000000 0.000000 0.000000
vn -1.000000 0.000000 0.000000
vn -1.000000 0.000000 0.000000
vn -1.000000 0.000000 0.000000
vn 0.000000 0.000000 -1.000000
vn 0.000000 0.000000 -1.000000
vn 0.000000 0.000000 -1.000000
vn 0.000000 0.000000 -1.000000
vn 0.000000 0.000000 1.000000
vn 0.000000 0.000000 1.000000
vn 0.000000 0.000000 1.000000
vn 0.000000 0.000000 1.000000
vn 0.000000 -1.000000 0.000000
vn 0.000000 -1.000000 0.000000
vn 0.000000 -1.000000 0.000000
vn 0.000000 -1.000000 0.000000
vn 1.000000 0.000000 0.000000
vn 1.000000 0.000000 0.000000
vn 1.000000 0.000000 0.000000
vn 1.000000 0.000000 0.000000
vn -1.000000 0.000000 0.000000
vn -1.000000 0.000000 0.000000
vn -1.000000 0.000000 0.000000
vn -1.000000 0.000000 0.000000
vn 0.000000 1.000000 0.000000
vn 0.000000 1.000000 0.000000
vn 0.000000 1.000000 0.000000
vn 0.000000 1.000000 0.000000
vn 0.000000 1.000000 0.000000
vn 0.000000 1.000000 0.000000
vn 0.000000 1.000000 0.000000
vn 0.000000 1.000000 0.000000
vn 0.000000 1.000000 0.000000
vn 0.000000 1.000000 0.000000
vn 0.000000 1.000000 0.000000
vn 0.000000 1.000000 0.000000
vn 0.000000 1.000000 0.000000
vn 0.000000 1.000000 0.000000
vn 0.000000 1.000000 0.000000
vn 0.987878 -0.124382 0.092881
vn 0.987878 -0.124382 -0.092881
vn 0.996004 -0.074087 0.049880
vn 0.996071 -0.088557 0.000000
vn 0.996071 -0.088557 0.000000
vn 0.996004 -0.074087 -0.049880
vn 0.000000 -1.000000 0.000000
vn 0.000000 -1.000000 0.000000
vn 0.000000 -1.000000 0.000000
vn 0.000000 -1.000000 0.000000
vn 0.000000 -1.000000 0.000000
vn 0.000000 -1.000000 0.000000
vn 0.000000 -1.000000 0.000000
vn 0.000000 -1.000000 0.000000
vn 0.000000 -1.000000 0.000000
vn 0.000000 -1.000000 0.000000
vn 0.000000 -1.000000 0.000000
vn 0.000000 -1.000000 0.000000
vn 0.000000 -1.000000 0.000000
vn 0.000000 1.000000 0.000000
vn 0.000000 1.000000 0.000000
vn 0.000000 1.000000 0.000000
vn 0.000000 1.000000 0.000000
vn 0.000000 1.000000 0.000000
vn 0.000000 1.000000 0.000000
vn 0.006866 -0.352492 0.935790
vn 0.943072 -0.028955 0.331326
vn -0.000006 -0.346315 0.938118
vn 0.618908 0.743803 0.252408
vn -0.015968 -0.327794 0.944614
vn -0.979801 -0.199975 -0.000004
vn -0.238265 0.971200 -0.000036
vn -0.223198 0.969379 -0.102404
vn -0.896326 -0.195671 -0.397884
vn -0.896313 -0.195744 0.397878
vn -0.223345 0.969338 0.102473
vn -0.702078 -0.190841 0.686051
vn -0.125094 0.965412 0.228759
vn -0.438866 -0.180769 0.880181
vn 0.361615 0.858307 0.364066
vn -0.125580 0.965302 -0.228958
vn -0.702089 -0.190792 -0.686054
vn 0.359303 0.856741 -0.369995
vn -0.438856 -0.180671 -0.880206
vn 0.162387 0.985410 0.050961
vn 0.726304 0.239185 0.644417
vn 0.509731 0.264306 0.818728
vn 0.507991 0.861121 -0.020384
vn 0.119575 0.991494 0.051391
vn 0.899931 0.234595 0.367546
vn 0.121700 0.992567 0.000010
vn 0.971296 0.237872 0.000005
vn 0.119461 0.991510 -0.051343
vn 0.899910 0.234687 -0.367537
vn 0.160583 0.985804 -0.049019
vn 0.727346 0.238684 -0.643427
vn 0.513494 0.857957 0.015274
vn 0.506754 0.263339 -0.820886
vn 0.474987 0.796055 -0.375079
vn -0.207861 -0.212678 -0.954757
vn 0.244216 0.259573 0.934334
vn 0.530158 0.845315 0.066138
vn -0.207519 -0.211929 0.954998
vn 0.478062 0.799744 0.363136
vn 0.532197 0.843709 -0.070156
vn 0.248502 0.257505 -0.933776
vn -0.037199 -0.306712 0.951075
vn 0.091863 0.958778 0.268898
vn -0.028682 -0.321753 0.946389
vn 0.130033 0.962691 0.237312
vn 0.110855 0.979328 -0.169197
vn 0.046408 0.307925 -0.950278
vn 0.138735 0.976931 -0.162353
vn 0.037492 0.306341 -0.951183
vn 0.612317 0.771255 -0.173880
vn 0.055392 0.299625 -0.952448
vn 0.090446 0.957702 -0.273177
vn -0.037229 -0.306560 -0.951123
vn 0.130714 0.961595 -0.241346
vn -0.028541 -0.321572 -0.946455
vn 0.618276 0.742064 -0.258991
vn -0.016151 -0.328106 -0.944503
vn 0.046059 0.308192 0.950209
vn 0.110284 0.979106 0.170847
vn 0.037416 0.306222 0.951225
vn 0.138399 0.977304 0.160381
vn 0.055695 0.299873 0.952352
vn 0.612896 0.771608 0.170234
vn 0.058206 0.272859 -0.960291
vn 0.067892 0.277832 -0.958228
vn 0.971867 0.119951 -0.202699
vn 0.006959 -0.352463 -0.935800
vn 0.000310 -0.346119 -0.938191
vn 0.942205 -0.029252 -0.333757
vn 0.058200 0.272884 0.960285
vn 0.972405 0.118932 0.200709
vn 0.067676 0.277734 0.958271
vn -0.969439 -0.245333 0.000000
vn -0.886671 -0.241664 0.394225
vn -0.694277 -0.240228 0.678432
vn -0.429375 -0.250392 0.867722
vn -0.143497 -0.307206 0.940762
vn -0.886671 -0.241664 -0.394225
vn -0.694277 -0.240228 -0.678432
vn -0.429513 -0.250371 -0.867660
vn 0.911421 0.181607 0.369229
vn 0.728728 0.180805 0.660503
vn 0.982876 0.184266 0.000000
vn 0.911421 0.181607 -0.369229
vn 0.730090 0.180779 -0.659005
vn 0.408038 0.191550 -0.892644
vn -0.143358 -0.307203 -0.940784
vn 0.137088 0.236586 -0.961891
vn 0.410616 0.192963 0.891156
vn 0.134408 0.238282 0.961851
vn 0.000000 1.000000 0.000000
vn 0.000000 1.000000 0.000000
vn 0.000000 1.000000 0.000000
vn 0.000000 1.000000 0.000000
vn 0.000000 1.000000 0.000000
vn 0.000000 1.000000 0.000000
s off
g Chair1 finished
usemtl initialShadingGroup
f 4/1/1 3/2/2 1/3/3 2/4/4
f 5/5/5 6/6/6 8/7/7 7/8/8
f 7/8/9 8/7/10 2/4/11 1/3/12
f 6/6/13 4/1/14 2/4/15 8/7/16
f 1/3/17 3/2/18 5/5/19 7/8/20
f 12/9/21 10/10/22 9/11/23 11/12/24
f 13/13/25 15/14/26 16/15/27 14/16/28
f 15/14/29 9/11/30 10/10/31 16/15/32
f 14/16/33 16/15/34 10/10/35 12/9/36
f 9/11/37 15/14/38 13/13/39 11/12/40
f 20/17/41 19/18/42 17/19/43 18/20/44
f 21/21/45 22/22/46 24/23/47 23/24/48
f 23/24/49 24/23/50 18/20/51 17/19/52
f 22/22/53 20/17/54 18/20/55 24/23/56
f 17/19/57 19/18/58 21/21/59 23/24/60
f 28/25/61 26/26/62 25/27/63 27/28/64
f 29/29/65 31/30/66 32/31/67 30/32/68
f 31/30/69 25/27/70 26/26/71 32/31/72
f 30/32/73 32/31/74 26/26/75 28/25/76
f 25/27/77 31/30/78 29/29/79 27/28/80
f 50/136/81 43/135/82 48/138/83 49/137/84
f 43/135/85 42/143/86 47/139/87 48/138/88
f 42/143/89 44/142/90 46/140/91 47/139/92
f 44/142/93 45/141/94 46/140/95
s 1
f 51/42/96 112/43/97 118/44/98 117/45/99 108/46/100 107/47/101
s off
f 113/48/102 112/43/103 51/42/104 52/49/105 34/50/106 35/51/107 36/52/108 37/53/109 33/54/110 38/55/111 39/56/112 40/57/113 41/58/114
f 117/133/115 116/129/116 50/136/117 49/137/118 109/132/119 108/134/120
s 1
f 52/49/121 51/42/96 54/61/122 53/62/123
f 53/62/123 54/61/122 121/63/124 122/64/125
f 55/65/126 56/66/127 62/67/128 61/68/129
f 56/66/127 55/65/126 57/69/130 58/70/131
f 58/70/131 57/69/130 60/71/132 59/72/133
f 59/72/133 60/71/132 80/73/134 79/74/135
f 61/68/129 62/67/128 64/75/136 63/76/137
f 63/76/137 64/75/136 75/77/138 76/78/139
f 65/79/140 66/80/141 78/81/142 77/82/143
f 66/80/141 65/79/140 67/83/144 68/84/145
f 68/84/145 67/83/144 69/85/146 70/86/147
f 70/86/147 69/85/146 71/87/148 72/88/149
f 72/88/149 71/87/148 74/89/150 73/90/151
f 73/90/151 74/89/150 81/91/152 82/92/153
f 76/78/139 75/77/138 103/93/154 104/94/155
f 106/95/156 105/96/157 77/82/143 78/81/142
f 79/74/135 80/73/134 100/97/158 99/98/159
f 82/92/153 81/91/152 101/99/160 102/100/161
f 83/101/162 84/102/163 99/98/159 100/97/158
f 84/102/163 83/101/162 86/103/164 85/104/165
f 85/104/165 86/103/164 122/64/125 121/63/124
f 87/105/166 88/106/167 102/100/161 101/99/160
f 88/106/167 87/105/166 90/107/168 89/108/169
f 89/108/169 90/107/168 124/109/170 123/110/171
f 91/111/172 92/112/173 104/94/155 103/93/154
f 92/112/173 91/111/172 94/113/174 93/114/175
f 93/114/175 94/113/174 125/115/176 126/116/177
f 95/117/178 96/118/179 105/96/157 106/95/156
f 96/118/179 95/117/178 98/119/180 97/120/181
f 97/120/181 98/119/180 127/121/182 128/122/183
f 107/47/101 109/60/184 111/123/185 110/124/186
f 110/124/186 111/123/185 123/110/171 124/109/170
f 112/43/97 113/48/187 115/125/188 114/126/189
f 114/126/189 115/125/188 126/116/177 125/115/176
f 116/59/190 118/44/98 120/127/191 119/128/192
f 119/128/192 120/127/191 128/122/183 127/121/182
f 33/54/193 37/53/194 57/69/130 55/65/126
f 37/53/194 36/52/195 60/71/132 57/69/130
f 60/71/132 36/52/195 35/51/196 80/73/134
f 35/51/196 34/50/197 100/97/158 80/73/134
f 55/65/126 61/68/129 38/55/198 33/54/193
f 61/68/129 63/76/137 39/56/199 38/55/198
f 40/57/200 39/56/199 63/76/137 76/78/139
f 64/75/136 62/67/128 67/83/144 65/79/140
f 62/67/128 56/66/127 69/85/146 67/83/144
f 56/66/127 58/70/131 71/87/148 69/85/146
f 58/70/131 59/72/133 74/89/150 71/87/148
f 87/105/166 84/102/163 85/104/165 90/107/168
f 97/120/181 94/113/174 91/111/172 96/118/179
f 66/80/141 68/84/145 44/39/201 42/37/202
f 68/84/145 70/86/147 45/41/203 44/39/201
f 70/86/147 72/88/149 46/40/204 45/41/203
f 72/88/149 73/90/151 47/38/205 46/40/204
f 48/35/206 47/38/205 73/90/151 82/92/153
f 76/78/139 104/94/155 41/58/207 40/57/200
f 82/92/153 102/100/161 49/36/208 48/35/206
f 103/93/154 75/77/138 77/82/143 105/96/157
f 75/77/138 64/75/136 65/79/140 77/82/143
f 59/72/133 79/74/135 81/91/152 74/89/150
f 101/99/160 81/91/152 79/74/135 99/98/159
f 106/95/156 78/81/142 43/34/209 50/33/210
f 43/34/209 78/81/142 66/80/141 42/37/202
f 99/98/159 84/102/163 87/105/166 101/99/160
f 91/111/172 103/93/154 105/96/157 96/118/179
f 34/50/197 83/101/162 100/97/158
f 49/36/208 102/100/161 88/106/167
f 41/58/207 104/94/155 92/112/173
f 50/33/210 95/117/178 106/95/156
f 110/124/186 54/61/122 51/42/96 107/47/101
f 112/43/97 114/126/189 120/127/191 118/44/98
f 85/104/165 121/63/124 124/109/170 90/107/168
f 121/63/124 54/61/122 110/124/186 124/109/170
f 114/126/189 125/115/176 128/122/183 120/127/191
f 125/115/176 94/113/174 97/120/181 128/122/183
f 86/103/164 83/101/162 34/50/197 52/49/121 53/62/123 122/64/125
f 111/123/185 109/60/184 49/36/208 88/106/167 89/108/169 123/110/171
f 115/125/188 113/48/187 41/58/207 92/112/173 93/114/175 126/116/177
f 98/119/180 95/117/178 50/33/210 116/59/190 119/128/192 127/121/182
s off
f 107/131/211 108/134/212 109/132/213
f 116/129/214 117/133/215 118/130/216
