# This file uses centimeters as units for non-parametric coordinates.

mtllib Chair2.mtl
g default
v -0.325404 0.002312 1.246463
v -0.379995 0.002312 1.280226
v -0.215467 0.471151 1.176057
v -0.267629 0.471151 1.209820
v -0.187227 0.471151 1.234537
v -0.238277 0.471151 1.268299
v -0.294849 0.002312 1.304942
v -0.348358 0.002312 1.338705
v 0.512549 0.002312 1.309384
v 0.580076 0.002312 1.309384
v 0.512549 0.471151 1.309384
v 0.580076 0.471151 1.309384
v 0.512549 0.471151 1.376910
v 0.580075 0.471151 1.376910
v 0.512549 0.002312 1.376910
v 0.580075 0.002312 1.376910
v -0.438935 0.463662 0.942090
v -0.010030 0.463662 1.389963
v -0.165429 0.463662 1.353076
v -0.304495 0.463662 1.254841
v -0.402799 0.463662 1.110713
v -0.333680 0.582843 0.942089
v -0.308630 0.582843 1.079339
v -0.236086 0.582843 1.197172
v -0.130804 0.582843 1.278335
v 0.054526 0.582843 1.312442
v 0.602871 0.463662 1.376099
v 0.572161 0.463662 1.397483
v 0.598222 0.785104 1.527451
v 0.632486 0.788409 1.497280
v -0.632486 1.224120 0.942090
v -0.603104 1.250805 0.942090
v -0.577802 1.223972 1.184530
v -0.551095 1.250805 1.173265
v -0.401936 1.250805 1.383302
v -0.424093 1.223708 1.400472
v -0.490366 1.250805 0.942090
v -0.457170 1.227141 0.942090
v -0.446157 1.250805 1.143819
v -0.416514 1.227284 1.129961
v -0.307250 1.226788 1.295123
v -0.330215 1.250805 1.318455
v -0.213451 1.217818 1.501835
v -0.224919 1.188248 1.528304
v -0.181477 1.216060 1.413766
v -0.176565 1.192546 1.378401
v 0.217527 0.923810 1.557042
v 0.234287 0.949766 1.530722
v 0.431793 0.949766 1.544528
v 0.425277 0.921279 1.570145
v 0.245628 0.949766 1.446896
v 0.236875 0.929326 1.411922
v 0.426719 0.927698 1.421243
v 0.431793 0.949766 1.455590
v 0.042392 0.992709 1.523134
v 0.036379 0.963974 1.549660
v 0.052856 0.994917 1.441089
v 0.049686 0.972763 1.405483
v 0.610588 0.582843 1.346398
v 0.613740 0.582843 1.303597
v 0.582891 0.582843 1.324731
v 0.632486 0.788409 1.419322
v 0.602571 0.785302 1.387132
v 0.580369 0.902505 1.536712
v 0.553249 0.882539 1.562581
v 0.557443 0.885033 1.414661
v 0.580369 0.902505 1.449734
v -0.308630 0.582843 0.942090
v -0.236086 0.582843 0.942090
v -0.130804 0.582843 0.942090
v 0.054527 0.582843 0.942089
v 0.613740 0.582843 0.942090
v 0.602871 0.463662 0.942090
v -0.325404 0.002312 -1.246463
v -0.379996 0.002312 -1.280226
v -0.215467 0.471151 -1.176058
v -0.267629 0.471151 -1.209821
v -0.187227 0.471151 -1.234537
v -0.238278 0.471151 -1.268300
v -0.294849 0.002312 -1.304942
v -0.348358 0.002312 -1.338705
v 0.512550 0.002312 -1.309384
v 0.580076 0.002312 -1.309384
v 0.512550 0.471151 -1.309384
v 0.580076 0.471151 -1.309384
v 0.512550 0.471151 -1.376910
v 0.580076 0.471151 -1.376910
v 0.512550 0.002312 -1.376910
v 0.580076 0.002312 -1.376910
v -0.438936 0.463662 -0.942090
v -0.010031 0.463662 -1.389963
v -0.165429 0.463662 -1.353077
v -0.304495 0.463662 -1.254841
v -0.402799 0.463662 -1.110714
v -0.333680 0.582843 -0.942090
v -0.308630 0.582843 -1.079339
v -0.236086 0.582843 -1.197172
v -0.130804 0.582843 -1.278336
v 0.054527 0.582843 -1.312442
v 0.602871 0.463662 -1.376099
v 0.572161 0.463662 -1.397484
v 0.598222 0.785104 -1.527452
v 0.632486 0.788409 -1.497280
v -0.632486 1.224120 -0.942090
v -0.603104 1.250805 -0.942090
v -0.577802 1.223972 -1.184530
v -0.551095 1.250805 -1.173265
v -0.401936 1.250805 -1.383303
v -0.424093 1.223708 -1.400472
v -0.490365 1.250805 -0.942090
v -0.457170 1.227141 -0.942090
v -0.446157 1.250805 -1.143820
v -0.416513 1.227284 -1.129962
v -0.307250 1.226788 -1.295123
v -0.330215 1.250805 -1.318455
v -0.213451 1.217818 -1.501835
v -0.224919 1.188248 -1.528303
v -0.181477 1.216060 -1.413766
v -0.176565 1.192546 -1.378401
v 0.217526 0.923810 -1.557042
v 0.234287 0.949766 -1.530722
v 0.431793 0.949766 -1.544528
v 0.425277 0.921279 -1.570145
v 0.245628 0.949766 -1.446896
v 0.236874 0.929326 -1.411923
v 0.426719 0.927698 -1.421243
v 0.431793 0.949766 -1.455591
v 0.042392 0.992709 -1.523134
v 0.036380 0.963974 -1.549661
v 0.052856 0.994917 -1.441088
v 0.049686 0.972763 -1.405484
v 0.610589 0.582843 -1.346399
v 0.613740 0.582843 -1.303598
v 0.582892 0.582843 -1.324731
v 0.632486 0.788409 -1.419322
v 0.602571 0.785302 -1.387132
v 0.580369 0.902505 -1.536712
v 0.553250 0.882539 -1.562582
v 0.557443 0.885033 -1.414660
v 0.580369 0.902505 -1.449734
v -0.308630 0.582843 -0.942090
v -0.236086 0.582843 -0.942090
v -0.130804 0.582843 -0.942090
v 0.054527 0.582843 -0.942090
v 0.613740 0.582843 -0.942090
v 0.602871 0.463662 -0.942090
vt 0.031709 0.287055
vt 0.032519 0.287055
vt 0.030830 0.258765
vt 0.030020 0.258765
vt 0.031116 0.287055
vt 0.030306 0.287055
vt 0.028617 0.258765
vt 0.029427 0.258765
vt 0.029321 0.287055
vt 0.029321 0.258765
vt 0.029321 0.258765
vt 0.029321 0.287055
vt 0.027701 0.287055
vt 0.027701 0.258765
vt 0.027701 0.258765
vt 0.027701 0.287055
vt 0.036700 0.705461
vt 0.037036 0.705461
vt 0.035135 0.718271
vt 0.034662 0.718140
vt 0.034517 0.722772
vt 0.034111 0.721984
vt 0.043842 0.736511
vt 0.043842 0.735458
vt 0.040040 0.735452
vt 0.040217 0.736511
vt 0.036654 0.735442
vt 0.036923 0.736511
vt 0.034649 0.734043
vt 0.035064 0.735210
vt 0.043842 0.735577
vt 0.043842 0.736511
vt 0.040679 0.736511
vt 0.040896 0.735583
vt 0.037940 0.736511
vt 0.038306 0.735563
vt 0.036445 0.735140
vt 0.037000 0.734213
vt 0.034314 0.725196
vt 0.034730 0.726330
vt 0.036017 0.726417
vt 0.036575 0.725543
vt 0.034198 0.723612
vt 0.034611 0.724636
vt 0.033993 0.723512
vt 0.034394 0.724636
vt 0.035926 0.724636
vt 0.036474 0.723830
vt 0.035789 0.724636
vt 0.036328 0.723765
vt 0.035881 0.722772
vt 0.036431 0.722082
vt 0.037502 0.710162
vt 0.037841 0.710162
vt 0.036863 0.718148
vt 0.036358 0.718271
vt 0.043842 0.705461
vt 0.041198 0.705461
vt 0.038938 0.705461
vt 0.037397 0.705461
vt 0.036818 0.705461
vt 0.043031 0.531731
vt 0.045184 0.531731
vt 0.041184 0.531731
vt 0.039911 0.531731
vt 0.039376 0.531731
vt 0.038173 0.710162
vt 0.045184 0.531731
vt 0.045184 0.531731
vt 0.045184 0.531731
vt 0.045184 0.531731
vt 0.043842 0.710162
vt 0.043842 0.705461
vt 0.089756 0.287055
vt 0.091445 0.258765
vt 0.090635 0.258765
vt 0.088946 0.287055
vt 0.090349 0.287055
vt 0.092038 0.258765
vt 0.092848 0.258765
vt 0.091159 0.287055
vt 0.092145 0.287055
vt 0.092145 0.287055
vt 0.092145 0.258765
vt 0.092145 0.258765
vt 0.093765 0.287055
vt 0.093765 0.287055
vt 0.093765 0.258765
vt 0.093765 0.258765
vt 0.080534 0.705461
vt 0.082572 0.718140
vt 0.082099 0.718271
vt 0.080198 0.705461
vt 0.083123 0.721984
vt 0.082717 0.722772
vt 0.073392 0.736511
vt 0.077017 0.736511
vt 0.077194 0.735452
vt 0.073392 0.735458
vt 0.080311 0.736511
vt 0.080581 0.735442
vt 0.082170 0.735210
vt 0.082585 0.734043
vt 0.073392 0.735577
vt 0.076338 0.735583
vt 0.076555 0.736511
vt 0.073392 0.736511
vt 0.078928 0.735563
vt 0.079294 0.736511
vt 0.080234 0.734213
vt 0.080789 0.735140
vt 0.082504 0.726330
vt 0.082920 0.725196
vt 0.080659 0.725543
vt 0.081218 0.726417
vt 0.083036 0.723612
vt 0.082623 0.724636
vt 0.082840 0.724636
vt 0.083241 0.723512
vt 0.081309 0.724636
vt 0.080760 0.723830
vt 0.080906 0.723765
vt 0.081445 0.724636
vt 0.080803 0.722082
vt 0.081353 0.722772
vt 0.079733 0.710162
vt 0.080876 0.718271
vt 0.080371 0.718148
vt 0.080734 0.531731
vt 0.073392 0.705461
vt 0.076036 0.705461
vt 0.078297 0.705461
vt 0.079837 0.705461
vt 0.080416 0.705461
vt 0.073392 0.710162
vt 0.076886 0.531731
vt 0.078734 0.531731
vt 0.080007 0.531731
vt 0.080542 0.531731
vt 0.080403 0.531731
vt 0.074733 0.531731
vt 0.074733 0.531731
vt 0.074733 0.531731
vt 0.074733 0.531731
vt 0.074733 0.531731
vt 0.073392 0.705461
vt 0.045184 0.531731
vt 0.073392 0.710162
vt 0.043842 0.710162
vt 0.074733 0.531731
vt 0.079061 0.710162
vt 0.079061 0.710162
vt 0.079393 0.710162
vt 0.079393 0.710162
vt 0.079733 0.710162
vt 0.079200 0.710162
vt 0.078665 0.710162
vt 0.077392 0.710162
vt 0.075544 0.710162
vt 0.039514 0.531731
vt 0.038843 0.531731
vt 0.039183 0.531731
vt 0.038034 0.710162
vt 0.038569 0.710162
vt 0.039842 0.710162
vt 0.041690 0.710162
vn -0.534574 -0.000177 -0.845122
vn -0.534573 -0.000177 -0.845122
vn -0.534573 -0.000177 -0.845122
vn -0.534573 -0.000177 -0.845122
vn 0.542513 0.000194 0.840048
vn 0.542513 0.000194 0.840048
vn 0.542513 0.000194 0.840048
vn 0.542513 0.000194 0.840048
vn 0.000000 -1.000000 0.000000
vn 0.000000 -1.000000 0.000000
vn 0.000000 -1.000000 0.000000
vn 0.000000 -1.000000 0.000000
vn -0.853894 0.269438 0.445273
vn -0.853894 0.269437 0.445273
vn -0.853894 0.269437 0.445273
vn -0.853894 0.269437 0.445273
vn 0.861536 -0.264931 -0.433090
vn 0.861536 -0.264931 -0.433090
vn 0.861536 -0.264931 -0.433090
vn 0.861536 -0.264931 -0.433090
vn 0.000008 0.000000 -1.000000
vn 0.000008 0.000000 -1.000000
vn 0.000008 0.000000 -1.000000
vn 0.000008 0.000000 -1.000000
vn 0.000000 0.000000 1.000000
vn 0.000000 0.000000 1.000000
vn 0.000000 0.000000 1.000000
vn 0.000000 0.000000 1.000000
vn 0.000000 -1.000000 0.000000
vn 0.000000 -1.000000 0.000000
vn 0.000000 -1.000000 0.000000
vn 0.000000 -1.000000 0.000000
vn 1.000000 0.000000 0.000004
vn 1.000000 0.000000 0.000004
vn 1.000000 0.000000 0.000004
vn 1.000000 0.000000 0.000004
vn -1.000000 0.000000 0.000000
vn -1.000000 0.000000 0.000000
vn -1.000000 0.000000 0.000000
vn -1.000000 0.000000 0.000000
vn 0.006866 -0.352492 0.935790
vn 0.975525 -0.149233 0.161492
vn 0.943072 -0.028955 0.331326
vn -0.000005 -0.346316 0.938118
vn 0.618909 0.743803 0.252408
vn -0.015967 -0.327794 0.944614
vn -0.189787 0.981811 0.005229
vn -0.978809 -0.203730 0.020650
vn -0.896313 -0.195744 0.397879
vn -0.223345 0.969338 0.102473
vn -0.702079 -0.190841 0.686050
vn -0.125094 0.965413 0.228758
vn -0.438867 -0.180770 0.880181
vn 0.361613 0.858307 0.364067
vn 0.973280 0.229098 -0.015510
vn 0.155952 0.987761 -0.002856
vn 0.119461 0.991510 -0.051343
vn 0.899910 0.234687 -0.367538
vn 0.160583 0.985804 -0.049019
vn 0.727346 0.238683 -0.643427
vn 0.513495 0.857957 0.015275
vn 0.506754 0.263339 -0.820886
vn -0.207519 -0.211930 0.954998
vn 0.478061 0.799743 0.363138
vn 0.532197 0.843709 -0.070155
vn 0.248502 0.257506 -0.933776
vn -0.037199 -0.306712 0.951075
vn 0.091863 0.958778 0.268898
vn -0.028681 -0.321753 0.946389
vn 0.130033 0.962691 0.237312
vn 0.110856 0.979328 -0.169197
vn 0.046409 0.307925 -0.950278
vn 0.138735 0.976931 -0.162354
vn 0.037492 0.306341 -0.951183
vn 0.612317 0.771255 -0.173880
vn 0.055392 0.299625 -0.952448
vn 0.994859 -0.065377 -0.077339
vn 0.058206 0.272860 -0.960292
vn 0.067892 0.277831 -0.958228
vn 0.971867 0.119950 -0.202698
vn -0.968910 -0.246463 0.021667
vn -0.886671 -0.241664 0.394225
vn -0.694277 -0.240228 0.678432
vn -0.429375 -0.250393 0.867722
vn -0.143496 -0.307206 0.940762
vn 0.911421 0.181607 -0.369230
vn 0.982058 0.187894 -0.016083
vn 0.730090 0.180779 -0.659005
vn 0.408038 0.191550 -0.892644
vn 0.137088 0.236586 -0.961891
vn 0.000000 1.000000 0.000000
vn 0.000000 1.000000 0.000000
vn 0.000000 1.000000 0.000000
vn 0.000000 1.000000 0.000000
vn 0.000000 1.000000 0.000000
vn 0.000000 1.000000 0.000000
vn 0.000000 1.000000 0.000000
vn 0.000000 1.000000 -0.000000
vn 0.000000 1.000000 -0.000000
vn 0.000000 1.000000 -0.000000
vn 0.000000 1.000000 -0.000000
vn 0.000000 1.000000 0.000000
vn 0.000000 1.000000 0.000000
vn 0.000000 1.000000 0.000000
vn 0.000000 1.000000 0.000000
vn 0.000000 1.000000 -0.000000
vn 0.000000 1.000000 -0.000000
vn 0.000000 1.000000 -0.000000
vn 0.000000 1.000000 -0.000000
vn 0.000000 1.000000 -0.000000
vn 0.996064 -0.088559 0.003745
vn 0.996064 -0.088559 0.003745
vn 0.996064 -0.088559 0.003745
vn 0.000000 -1.000000 0.000000
vn 0.000000 -1.000000 0.000000
vn 0.000000 -1.000000 0.000000
vn 0.000000 -1.000000 0.000000
vn 0.000000 -1.000000 0.000000
vn 0.000000 -1.000000 0.000000
vn 0.000000 -1.000000 0.000000
vn 0.000000 -1.000000 0.000000
vn -0.534573 -0.000176 0.845122
vn -0.534573 -0.000176 0.845122
vn -0.534573 -0.000176 0.845122
vn -0.534573 -0.000176 0.845122
vn 0.542512 0.000193 -0.840048
vn 0.542512 0.000193 -0.840048
vn 0.542512 0.000193 -0.840048
vn 0.542512 0.000193 -0.840048
vn 0.000000 -1.000000 0.000000
vn 0.000000 -1.000000 0.000000
vn 0.000000 -1.000000 0.000000
vn 0.000000 -1.000000 0.000000
vn -0.853895 0.269437 -0.445271
vn -0.853896 0.269437 -0.445271
vn -0.853896 0.269437 -0.445271
vn -0.853895 0.269437 -0.445271
vn 0.861536 -0.264930 0.433091
vn 0.861536 -0.264930 0.433091
vn 0.861536 -0.264930 0.433091
vn 0.861536 -0.264930 0.433091
vn 0.000000 0.000000 1.000000
vn 0.000000 0.000000 1.000000
vn 0.000000 0.000000 1.000000
vn 0.000000 0.000000 1.000000
vn 0.000000 0.000000 -1.000000
vn 0.000000 0.000000 -1.000000
vn 0.000000 0.000000 -1.000000
vn 0.000000 0.000000 -1.000000
vn 0.000000 -1.000000 0.000000
vn 0.000000 -1.000000 0.000000
vn 0.000000 -1.000000 0.000000
vn 0.000000 -1.000000 0.000000
vn 1.000000 0.000000 0.000000
vn 1.000000 0.000000 0.000000
vn 1.000000 0.000000 0.000000
vn 1.000000 0.000000 0.000000
vn -1.000000 0.000000 0.000000
vn -1.000000 0.000000 0.000000
vn -1.000000 0.000000 0.000000
vn -1.000000 0.000000 0.000000
vn 0.006866 -0.352492 -0.935790
vn -0.000006 -0.346315 -0.938118
vn 0.943072 -0.028954 -0.331327
vn 0.975526 -0.149231 -0.161492
vn -0.015967 -0.327794 -0.944614
vn 0.618909 0.743803 -0.252407
vn -0.189787 0.981811 -0.005229
vn -0.223345 0.969338 -0.102473
vn -0.896313 -0.195744 -0.397878
vn -0.978809 -0.203730 -0.020650
vn -0.125094 0.965412 -0.228759
vn -0.702078 -0.190841 -0.686051
vn 0.361615 0.858307 -0.364065
vn -0.438866 -0.180769 -0.880181
vn 0.973280 0.229098 0.015510
vn 0.899910 0.234687 0.367538
vn 0.119461 0.991511 0.051343
vn 0.155952 0.987760 0.002856
vn 0.727346 0.238683 0.643427
vn 0.160583 0.985804 0.049019
vn 0.506753 0.263338 0.820886
vn 0.513494 0.857957 -0.015275
vn 0.478062 0.799744 -0.363134
vn -0.207519 -0.211929 -0.954998
vn 0.248502 0.257505 0.933776
vn 0.532197 0.843709 0.070156
vn -0.037199 -0.306712 -0.951075
vn 0.091863 0.958778 -0.268898
vn 0.130033 0.962691 -0.237312
vn -0.028682 -0.321753 -0.946389
vn 0.110855 0.979328 0.169197
vn 0.046408 0.307925 0.950278
vn 0.037492 0.306341 0.951183
vn 0.138736 0.976931 0.162353
vn 0.055391 0.299625 0.952448
vn 0.612317 0.771255 0.173881
vn 0.994859 -0.065375 0.077339
vn 0.971867 0.119952 0.202699
vn 0.067891 0.277831 0.958228
vn 0.058206 0.272859 0.960292
vn -0.968910 -0.246463 -0.021667
vn -0.886671 -0.241664 -0.394225
vn -0.694277 -0.240228 -0.678432
vn -0.429375 -0.250392 -0.867722
vn -0.143497 -0.307206 -0.940762
vn 0.982058 0.187894 0.016083
vn 0.911421 0.181607 0.369230
vn 0.730090 0.180779 0.659005
vn 0.408038 0.191550 0.892644
vn 0.137088 0.236586 0.961891
vn 0.000000 1.000000 -0.000002
vn 0.000000 1.000000 -0.000002
vn 0.000000 1.000000 -0.000002
vn 0.000000 1.000000 0.000000
vn 0.000000 1.000000 0.000000
vn 0.000000 1.000000 0.000000
vn 0.000000 1.000000 0.000000
vn 0.000000 1.000000 0.000000
vn 0.000000 1.000000 0.000000
vn 0.000000 1.000000 0.000000
vn 0.000000 1.000000 0.000000
vn 0.000000 1.000000 0.000000
vn 0.000000 1.000000 0.000000
vn 0.000000 1.000000 0.000000
vn 0.000000 1.000000 0.000000
vn 0.000000 1.000000 0.000000
vn 0.000000 1.000000 0.000000
vn 0.000000 1.000000 0.000000
vn 0.000000 1.000000 0.000000
vn 0.000000 1.000000 0.000000
vn 0.996064 -0.088557 -0.003744
vn 0.996064 -0.088557 -0.003744
vn 0.996064 -0.088557 -0.003744
vn 0.000000 -1.000000 -0.000000
vn 0.000000 -1.000000 -0.000000
vn 0.000000 -1.000000 -0.000000
vn 0.000000 -1.000000 -0.000000
vn 0.000000 -1.000000 -0.000000
vn 0.000000 -1.000000 -0.000000
vn 0.000000 -1.000000 -0.000000
vn 0.000000 -1.000000 -0.000000
vn 0.000000 1.000000 0.000000
vn 0.000000 1.000000 0.000000
vn 0.000000 1.000000 0.000000
vn 0.000000 1.000000 0.000000
vn 0.000000 0.000000 0.000000
vn 0.000000 0.000000 0.000000
vn 0.000000 0.000000 0.000000
vn 0.000000 0.000000 0.000000
vn 0.000000 1.000000 -0.000000
vn 0.000000 1.000000 -0.000000
vn 0.000000 1.000000 -0.000000
vn 0.000000 1.000000 -0.000000
vn 0.000000 1.000000 0.000000
vn 0.000000 1.000000 0.000000
vn 0.000000 1.000000 0.000000
vn 0.000000 1.000000 0.000000
vn 0.000000 1.000000 0.000000
vn 0.000000 1.000000 0.000000
vn 0.000000 1.000000 0.000000
vn 0.000000 1.000000 0.000000
vn 0.000000 1.000000 0.000000
vn 0.000000 1.000000 0.000000
vn 0.000000 1.000000 0.000000
vn 0.000000 1.000000 0.000000
vn 0.995868 -0.090818 0.000000
vn 0.995868 -0.090818 0.000000
vn 0.995868 -0.090818 0.000000
vn 0.995868 -0.090818 0.000000
vn 0.000000 -1.000000 -0.000000
vn 0.000000 -1.000000 -0.000000
vn 0.000000 -1.000000 -0.000000
vn 0.000000 -1.000000 -0.000000
s off
g Chair2 finished
usemtl initialShadingGroup
f 4/1/1 3/2/2 1/3/3 2/4/4
f 5/5/5 6/6/6 8/7/7 7/8/8
f 7/8/9 8/7/10 2/4/11 1/3/12
f 6/6/13 4/1/14 2/4/15 8/7/16
f 1/3/17 3/2/18 5/5/19 7/8/20
f 12/9/21 10/10/22 9/11/23 11/12/24
f 13/13/25 15/14/26 16/15/27 14/16/28
f 15/14/29 9/11/30 10/10/31 16/15/32
f 14/16/33 16/15/34 10/10/35 12/9/36
f 9/11/37 15/14/38 13/13/39 11/12/40
s 1
f 28/17/41 27/18/42 30/19/43 29/20/44
f 29/20/44 30/19/43 64/21/45 65/22/46
f 32/23/47 31/24/48 33/25/49 34/26/50
f 34/26/50 33/25/49 36/27/51 35/28/52
f 35/28/52 36/27/51 44/29/53 43/30/54
f 38/31/55 37/32/56 39/33/57 40/34/58
f 40/34/58 39/33/57 42/35/59 41/36/60
f 41/36/60 42/35/59 45/37/61 46/38/62
f 43/30/54 44/29/53 56/39/63 55/40/64
f 46/38/62 45/37/61 57/41/65 58/42/66
f 47/43/67 48/44/68 55/40/64 56/39/63
f 48/44/68 47/43/67 50/45/69 49/46/70
f 49/46/70 50/45/69 65/22/46 64/21/45
f 51/47/71 52/48/72 58/42/66 57/41/65
f 52/48/72 51/47/71 54/49/73 53/50/74
f 53/50/74 54/49/73 67/51/75 66/52/76
f 59/53/77 61/54/78 63/55/79 62/56/80
f 62/56/80 63/55/79 66/52/76 67/51/75
f 17/57/81 21/58/82 33/25/49 31/24/48
f 21/58/82 20/59/83 36/27/51 33/25/49
f 36/27/51 20/59/83 19/60/84 44/29/53
f 19/60/84 18/61/85 56/39/63 44/29/53
f 32/23/47 34/26/50 39/33/57 37/32/56
f 34/26/50 35/28/52 42/35/59 39/33/57
f 51/47/71 48/44/68 49/46/70 54/49/73
f 38/31/55 40/34/58 23/166/86 22/149/87
f 40/34/58 41/36/60 24/165/88 23/166/86
f 25/164/89 24/165/88 41/36/60 46/38/62
f 46/38/62 58/42/66 26/163/90 25/164/89
f 35/28/52 43/30/54 45/37/61 42/35/59
f 57/41/65 45/37/61 43/30/54 55/40/64
f 55/40/64 48/44/68 51/47/71 57/41/65
f 18/61/85 47/43/67 56/39/63
f 26/163/90 58/42/66 52/48/72
f 62/56/80 30/19/43 27/18/42 59/53/77
f 49/46/70 64/21/45 67/51/75 54/49/73
f 64/21/45 30/19/43 62/56/80 67/51/75
f 50/45/69 47/43/67 18/61/85 28/17/41 29/20/44 65/22/46
f 63/55/79 61/54/78 26/163/90 52/48/72 53/50/74 66/52/76
s off
f 59/161/91 60/160/92 61/162/93
f 69/68/94 68/69/95 23/62/96 24/64/97
f 70/70/98 69/68/99 24/64/100 25/65/101
f 71/71/102 70/70/103 25/65/104 26/66/105
f 72/147/106 71/71/107 26/66/108 61/162/109 60/160/110
s 1
f 27/18/42 73/73/111 72/72/112 60/67/113 59/53/77
s off
f 17/57/114 73/73/115 27/18/116 28/17/117 18/61/118 19/60/119 20/59/120 21/58/121
f 77/74/122 75/75/123 74/76/124 76/77/125
f 78/78/126 80/79/127 81/80/128 79/81/129
f 80/79/130 74/76/131 75/75/132 81/80/133
f 79/81/134 81/80/135 75/75/136 77/74/137
f 74/76/138 80/79/139 78/78/140 76/77/141
f 85/82/142 84/83/143 82/84/144 83/85/145
f 86/86/146 87/87/147 89/88/148 88/89/149
f 88/89/150 89/88/151 83/85/152 82/84/153
f 87/87/154 85/82/155 83/85/156 89/88/157
f 82/84/158 84/83/159 86/86/160 88/89/161
s 1
f 101/90/162 102/91/163 103/92/164 100/93/165
f 102/91/163 138/94/166 137/95/167 103/92/164
f 105/96/168 107/97/169 106/98/170 104/99/171
f 107/97/169 108/100/172 109/101/173 106/98/170
f 108/100/172 116/102/174 117/103/175 109/101/173
f 111/104/176 113/105/177 112/106/178 110/107/179
f 113/105/177 114/108/180 115/109/181 112/106/178
f 114/108/180 119/110/182 118/111/183 115/109/181
f 116/102/174 128/112/184 129/113/185 117/103/175
f 119/110/182 131/114/186 130/115/187 118/111/183
f 120/116/188 129/113/185 128/112/184 121/117/189
f 121/117/189 122/118/190 123/119/191 120/116/188
f 122/118/190 137/95/167 138/94/166 123/119/191
f 124/120/192 130/115/187 131/114/186 125/121/193
f 125/121/193 126/122/194 127/123/195 124/120/192
f 126/122/194 139/124/196 140/125/197 127/123/195
f 132/155/198 135/127/199 136/128/200 134/153/201
f 135/127/199 140/125/197 139/124/196 136/128/200
f 90/130/202 104/99/171 106/98/170 94/131/203
f 94/131/203 106/98/170 109/101/173 93/132/204
f 109/101/173 117/103/175 92/133/205 93/132/204
f 92/133/205 117/103/175 129/113/185 91/134/206
f 105/96/168 110/107/179 112/106/178 107/97/169
f 107/97/169 112/106/178 115/109/181 108/100/172
f 124/120/192 127/123/195 122/118/190 121/117/189
f 111/104/176 95/135/207 96/159/208 113/105/177
f 113/105/177 96/159/208 97/158/209 114/108/180
f 98/157/210 119/110/182 114/108/180 97/158/209
f 119/110/182 98/157/210 99/156/211 131/114/186
f 108/100/172 115/109/181 118/111/183 116/102/174
f 130/115/187 128/112/184 116/102/174 118/111/183
f 128/112/184 130/115/187 124/120/192 121/117/189
f 91/134/206 129/113/185 120/116/188
f 99/156/211 125/121/193 131/114/186
f 135/127/199 132/155/198 100/93/165 103/92/164
f 122/118/190 127/123/195 140/125/197 137/95/167
f 137/95/167 140/125/197 135/127/199 103/92/164
f 123/119/191 138/94/166 102/91/163 101/90/162 91/134/206 120/116/188
f 136/128/200 139/124/196 126/122/194 125/121/193 99/156/211 134/153/201
s off
f 132/126/212 134/154/213 133/151/214
f 142/141/215 97/137/216 96/136/217 141/142/218
f 143/143/219 98/138/220 97/137/221 142/141/222
f 144/144/223 99/139/224 98/138/225 143/143/226
f 145/145/227 133/140/228 134/129/229 99/139/230 144/144/231
s 1
f 100/93/165 132/155/198 133/152/232 145/148/233 146/146/234
s off
f 90/130/235 94/131/236 93/132/237 92/133/238 91/134/239 101/90/240 100/93/241 146/146/242
f 22/63/243 23/62/244 96/136/245 95/150/246
f 23/62/247 68/69/248 141/142/249 96/136/250
f 68/69/251 69/68/252 142/141/253 141/142/254
f 69/68/255 70/70/256 143/143/257 142/141/258
f 70/70/259 71/71/260 144/144/261 143/143/262
f 71/71/263 72/147/264 145/145/265 144/144/266
f 72/72/267 73/73/268 146/146/269 145/148/270
f 73/73/271 17/57/272 90/130/273 146/146/274
s 1
f 17/57/81 31/24/48 104/99/171 90/130/202
f 31/24/48 32/23/47 105/96/168 104/99/171
f 32/23/47 37/32/56 110/107/179 105/96/168
f 37/32/56 38/31/55 111/104/176 110/107/179
f 38/31/55 22/149/87 95/135/207 111/104/176
