# This file uses centimeters as units for non-parametric coordinates.

mtllib Shelve.mtl
g default
v -0.250000 0.000000 1.044481
v -0.250000 2.881617 1.044481
v -0.250000 2.881617 -1.044481
v -0.250000 0.000000 -1.044481
v 0.250000 0.000000 1.044481
v 0.250000 0.000000 -1.044481
v 0.250000 2.881617 -1.044481
v 0.250000 2.881617 1.044481
v 0.250000 2.383656 -1.044481
v 0.250000 2.318662 -1.044481
v 0.250000 2.318662 1.044481
v 0.250000 2.383656 1.044481
v -0.250000 2.383656 1.044481
v -0.250000 2.318662 1.044481
v -0.250000 2.318662 -1.044481
v -0.250000 2.383656 -1.044481
v 0.250000 1.883656 -1.044481
v 0.250000 1.818662 -1.044481
v 0.250000 1.818662 1.044481
v 0.250000 1.883656 1.044481
v -0.250000 1.883656 1.044481
v -0.250000 1.818662 1.044481
v -0.250000 1.818662 -1.044481
v -0.250000 1.883656 -1.044481
v 0.250000 1.383656 -1.044481
v 0.250000 1.318662 -1.044481
v 0.250000 1.318662 1.044481
v 0.250000 1.383656 1.044481
v -0.250000 1.383656 1.044481
v -0.250000 1.318662 1.044481
v -0.250000 1.318662 -1.044481
v -0.250000 1.383656 -1.044481
v 0.250000 0.883656 -1.044481
v 0.250000 0.818662 -1.044481
v 0.250000 0.818662 1.044481
v 0.250000 0.883656 1.044481
v -0.250000 0.883656 1.044481
v -0.250000 0.818662 1.044481
v -0.250000 0.818662 -1.044481
v -0.250000 0.883656 -1.044481
v 0.250000 0.383656 -1.044481
v 0.250000 0.318662 -1.044481
v 0.250000 0.318662 1.044481
v 0.250000 0.383656 1.044481
v -0.250000 0.318662 1.044481
v -0.250000 0.383656 1.044481
v -0.250000 0.318662 -1.044481
v -0.250000 0.383656 -1.044481
v -0.250000 2.881617 0.919006
v 0.250000 2.881617 0.919006
v 0.250000 2.383656 0.919006
v 0.250000 2.342636 0.919006
v 0.250000 1.883656 0.919006
v 0.250000 1.842635 0.919006
v 0.250000 1.383656 0.919006
v 0.250000 1.342635 0.919006
v 0.250000 0.883656 0.919006
v 0.250000 0.842635 0.919006
v 0.250000 0.383656 0.919006
v 0.250000 0.318662 0.919006
v 0.250000 0.000000 0.919006
v -0.250000 0.000000 0.919006
v -0.250000 0.318662 0.919006
v -0.250000 0.383656 0.919006
v -0.250000 0.818662 0.919006
v -0.250000 0.883656 0.919006
v -0.250000 1.318662 0.919006
v -0.250000 1.383656 0.919006
v -0.250000 1.818662 0.919006
v -0.250000 1.883656 0.919006
v -0.250000 2.318662 0.919006
v -0.250000 2.383656 0.919006
v -0.250000 0.000000 -0.919006
v 0.250000 0.000000 -0.919006
v 0.250000 0.318662 -0.919006
v 0.250000 0.383656 -0.919006
v 0.250000 0.842635 -0.919006
v 0.250000 0.883656 -0.919006
v 0.250000 1.342635 -0.919006
v 0.250000 1.383656 -0.919006
v 0.250000 1.842635 -0.919006
v 0.250000 1.883656 -0.919006
v 0.250000 2.342636 -0.919006
v 0.250000 2.383656 -0.919006
v 0.250000 2.881617 -0.919006
v -0.250000 2.881617 -0.919006
v -0.250000 2.383656 -0.919006
v -0.250000 2.318662 -0.919006
v -0.250000 1.883656 -0.919006
v -0.250000 1.818662 -0.919006
v -0.250000 1.383656 -0.919006
v -0.250000 1.318662 -0.919006
v -0.250000 0.883656 -0.919006
v -0.250000 0.818662 -0.919006
v -0.250000 0.383656 -0.919006
v -0.250000 0.318662 -0.919006
v 0.250000 2.784410 -1.044481
v 0.250000 2.814867 -0.919006
v 0.250000 2.814867 0.919006
v 0.250000 2.784410 1.044481
v -0.250000 2.784410 1.044481
v -0.250000 2.784410 0.919006
v -0.250000 2.784410 -0.919006
v -0.250000 2.784410 -1.044481
v -0.189169 2.383656 -0.919006
v -0.189169 2.383656 0.919006
v -0.189169 2.814867 -0.919006
v -0.189169 2.814867 0.919006
v -0.189169 1.883656 -0.919006
v -0.189169 1.883656 0.919006
v -0.189169 2.342636 -0.919006
v -0.189169 2.342636 0.919006
v -0.189169 1.383656 -0.919006
v -0.189169 1.383656 0.919006
v -0.189169 1.842635 -0.919006
v -0.189169 1.842635 0.919006
v -0.189169 0.883656 -0.919006
v -0.189169 0.883656 0.919006
v -0.189169 1.342635 -0.919006
v -0.189169 1.342635 0.919006
v -0.189169 0.383656 -0.919006
v -0.189169 0.383656 0.919006
v -0.189169 0.842635 -0.919006
v -0.189169 0.842635 0.919006
v 0.156523 0.000000 -0.919006
v 0.156523 0.318662 -0.919006
v 0.156523 0.318662 0.919006
v 0.156523 0.000000 0.919006
vt 0.059865 0.415102
vt 0.092251 0.415102
vt 0.092251 0.415102
vt 0.059865 0.415102
vt 0.094462 0.408741
vt 0.094462 0.407911
vt 0.094462 0.407911
vt 0.094462 0.408741
vt 0.092251 0.408217
vt 0.092251 0.408741
vt 0.059865 0.408741
vt 0.059865 0.408217
vt 0.057654 0.407911
vt 0.057654 0.408741
vt 0.057654 0.408741
vt 0.057654 0.407911
vt 0.092251 0.408741
vt 0.092251 0.407911
vt 0.059865 0.407911
vt 0.059865 0.408741
vt 0.094462 0.402354
vt 0.094462 0.401524
vt 0.094462 0.401524
vt 0.094462 0.402354
vt 0.092251 0.401830
vt 0.092251 0.402354
vt 0.059865 0.402354
vt 0.059865 0.401830
vt 0.057654 0.401524
vt 0.057654 0.402354
vt 0.057654 0.402354
vt 0.057654 0.401524
vt 0.092251 0.402354
vt 0.092251 0.401524
vt 0.059865 0.401524
vt 0.059865 0.402354
vt 0.094462 0.395968
vt 0.094462 0.395138
vt 0.094462 0.395138
vt 0.094462 0.395968
vt 0.092251 0.395444
vt 0.092251 0.395968
vt 0.059865 0.395968
vt 0.059865 0.395444
vt 0.057654 0.395138
vt 0.057654 0.395968
vt 0.057654 0.395968
vt 0.057654 0.395138
vt 0.092251 0.395968
vt 0.092251 0.395138
vt 0.059865 0.395138
vt 0.059865 0.395968
vt 0.094462 0.389581
vt 0.094462 0.388751
vt 0.094462 0.388751
vt 0.094462 0.389581
vt 0.092251 0.389057
vt 0.092251 0.389581
vt 0.059865 0.389581
vt 0.059865 0.389057
vt 0.057654 0.388751
vt 0.057654 0.389581
vt 0.057654 0.389581
vt 0.057654 0.388751
vt 0.092251 0.389581
vt 0.092251 0.388751
vt 0.059865 0.388751
vt 0.059865 0.389581
vt 0.094462 0.383194
vt 0.094462 0.382364
vt 0.094462 0.382364
vt 0.094462 0.383194
vt 0.092251 0.382364
vt 0.092251 0.383194
vt 0.059865 0.383194
vt 0.059865 0.382364
vt 0.057654 0.382364
vt 0.057654 0.383194
vt 0.057654 0.383194
vt 0.057654 0.382364
vt 0.092251 0.383194
vt 0.092251 0.382364
vt 0.059865 0.382364
vt 0.059865 0.383194
vt 0.092251 0.378294
vt 0.059865 0.378294
vt 0.094462 0.378294
vt 0.094462 0.378294
vt 0.057654 0.378294
vt 0.057654 0.378294
vt 0.092251 0.378294
vt 0.092251 0.382364
vt 0.059865 0.382364
vt 0.059865 0.378294
vt 0.059865 0.408741
vt 0.092251 0.408741
vt 0.092251 0.414249
vt 0.059865 0.414249
vt 0.057654 0.413860
vt 0.057654 0.413860
vt 0.059865 0.413860
vt 0.092251 0.413860
vt 0.094462 0.413860
vt 0.094462 0.413860
vt 0.059865 0.402354
vt 0.092251 0.402354
vt 0.092251 0.408217
vt 0.059865 0.408217
vt 0.059865 0.395968
vt 0.092251 0.395968
vt 0.092251 0.401830
vt 0.059865 0.401830
vt 0.059865 0.389581
vt 0.092251 0.389581
vt 0.092251 0.395444
vt 0.059865 0.395444
vt 0.059865 0.383194
vt 0.092251 0.383194
vt 0.092251 0.389057
vt 0.059865 0.389057
vt 0.057654 0.415102
vt 0.057654 0.415102
vt 0.059865 0.414249
vt 0.059865 0.378294
vt 0.092251 0.378294
vt 0.092251 0.414249
vt 0.094462 0.415102
vt 0.094462 0.415102
vn 0.000000 1.000000 0.000000
vn 0.000000 1.000000 0.000000
vn 0.000000 1.000000 0.000000
vn 0.000000 1.000000 0.000000
vn 0.000000 0.000000 -1.000000
vn 0.000000 0.000000 -1.000000
vn 0.000000 0.000000 -1.000000
vn 0.000000 0.000000 -1.000000
vn 1.000000 0.000000 0.000000
vn 1.000000 0.000000 0.000000
vn 1.000000 0.000000 0.000000
vn 1.000000 0.000000 0.000000
vn 0.000000 0.000000 1.000000
vn 0.000000 0.000000 1.000000
vn 0.000000 0.000000 1.000000
vn 0.000000 0.000000 1.000000
vn -1.000000 0.000000 0.000000
vn -1.000000 0.000000 0.000000
vn -1.000000 0.000000 0.000000
vn -1.000000 0.000000 0.000000
vn 0.000000 0.000000 -1.000000
vn 0.000000 0.000000 -1.000000
vn 0.000000 0.000000 -1.000000
vn 0.000000 0.000000 -1.000000
vn 1.000000 0.000000 0.000000
vn 1.000000 0.000000 0.000000
vn 1.000000 0.000000 0.000000
vn 1.000000 0.000000 0.000000
vn 0.000000 0.000000 1.000000
vn 0.000000 0.000000 1.000000
vn 0.000000 0.000000 1.000000
vn 0.000000 0.000000 1.000000
vn -1.000000 0.000000 0.000000
vn -1.000000 0.000000 0.000000
vn -1.000000 0.000000 0.000000
vn -1.000000 0.000000 0.000000
vn 0.000000 0.000000 -1.000000
vn 0.000000 0.000000 -1.000000
vn 0.000000 0.000000 -1.000000
vn 0.000000 0.000000 -1.000000
vn 1.000000 0.000000 0.000000
vn 1.000000 0.000000 0.000000
vn 1.000000 0.000000 0.000000
vn 1.000000 0.000000 0.000000
vn 0.000000 0.000000 1.000000
vn 0.000000 0.000000 1.000000
vn 0.000000 0.000000 1.000000
vn 0.000000 0.000000 1.000000
vn -1.000000 0.000000 0.000000
vn -1.000000 0.000000 0.000000
vn -1.000000 0.000000 0.000000
vn -1.000000 0.000000 0.000000
vn 0.000000 0.000000 -1.000000
vn 0.000000 0.000000 -1.000000
vn 0.000000 0.000000 -1.000000
vn 0.000000 0.000000 -1.000000
vn 1.000000 0.000000 0.000000
vn 1.000000 0.000000 0.000000
vn 1.000000 0.000000 0.000000
vn 1.000000 0.000000 0.000000
vn 0.000000 0.000000 1.000000
vn 0.000000 0.000000 1.000000
vn 0.000000 0.000000 1.000000
vn 0.000000 0.000000 1.000000
vn -1.000000 0.000000 0.000000
vn -1.000000 0.000000 0.000000
vn -1.000000 0.000000 0.000000
vn -1.000000 0.000000 0.000000
vn 0.000000 0.000000 -1.000000
vn 0.000000 0.000000 -1.000000
vn 0.000000 0.000000 -1.000000
vn 0.000000 0.000000 -1.000000
vn 1.000000 0.000000 0.000000
vn 1.000000 0.000000 0.000000
vn 1.000000 0.000000 0.000000
vn 1.000000 0.000000 0.000000
vn 0.000000 0.000000 1.000000
vn 0.000000 0.000000 1.000000
vn 0.000000 0.000000 1.000000
vn 0.000000 0.000000 1.000000
vn -1.000000 0.000000 0.000000
vn -1.000000 0.000000 0.000000
vn -1.000000 0.000000 0.000000
vn -1.000000 0.000000 0.000000
vn -1.000000 0.000000 0.000000
vn -1.000000 0.000000 0.000000
vn 0.000000 0.000000 -1.000000
vn 0.000000 0.000000 -1.000000
vn 0.000000 0.000000 1.000000
vn 0.000000 0.000000 1.000000
vn 1.000000 0.000000 0.000000
vn 1.000000 0.000000 0.000000
vn 1.000000 0.000000 0.000000
vn 1.000000 0.000000 0.000000
vn 1.000000 0.000000 0.000000
vn 1.000000 0.000000 0.000000
vn 1.000000 0.000000 0.000000
vn 1.000000 0.000000 0.000000
vn 0.000000 0.000000 1.000000
vn 0.000000 0.000000 1.000000
vn -1.000000 0.000000 0.000000
vn -1.000000 0.000000 0.000000
vn 0.000000 0.000000 -1.000000
vn 0.000000 0.000000 -1.000000
vn 1.000000 0.000000 0.000000
vn 1.000000 0.000000 0.000000
vn 1.000000 0.000000 0.000000
vn 1.000000 0.000000 0.000000
vn 1.000000 0.000000 0.000000
vn 1.000000 0.000000 0.000000
vn 1.000000 0.000000 0.000000
vn 1.000000 0.000000 0.000000
vn 1.000000 0.000000 0.000000
vn 1.000000 0.000000 0.000000
vn 1.000000 0.000000 0.000000
vn 1.000000 0.000000 0.000000
vn 1.000000 0.000000 0.000000
vn 1.000000 0.000000 0.000000
vn 1.000000 0.000000 0.000000
vn 1.000000 0.000000 0.000000
vn 0.000000 1.000000 0.000000
vn 0.000000 1.000000 0.000000
vn 1.000000 0.000000 0.000000
vn 1.000000 0.000000 0.000000
vn 1.000000 0.000000 0.000000
vn 1.000000 0.000000 0.000000
vn 1.000000 0.000000 0.000000
vn 1.000000 0.000000 0.000000
vn 1.000000 0.000000 0.000000
vn 1.000000 0.000000 0.000000
vn 1.000000 0.000000 0.000000
vn 1.000000 0.000000 0.000000
vn 1.000000 0.000000 0.000000
vn 1.000000 0.000000 0.000000
vn 1.000000 0.000000 0.000000
vn 1.000000 0.000000 0.000000
vn -1.000000 0.000000 0.000000
vn -1.000000 0.000000 0.000000
vn -1.000000 0.000000 0.000000
vn -1.000000 0.000000 0.000000
vn -1.000000 0.000000 0.000000
vn -1.000000 0.000000 0.000000
vn -1.000000 0.000000 0.000000
vn -1.000000 0.000000 0.000000
vn -1.000000 0.000000 0.000000
vn -1.000000 0.000000 0.000000
vn -1.000000 0.000000 0.000000
vn -1.000000 0.000000 0.000000
vn 1.000000 0.000000 0.000000
vn 1.000000 0.000000 0.000000
vn 1.000000 0.000000 0.000000
vn 1.000000 0.000000 0.000000
vn 1.000000 0.000000 0.000000
vn 1.000000 0.000000 0.000000
vn 1.000000 0.000000 0.000000
vn 1.000000 0.000000 0.000000
vn 1.000000 0.000000 0.000000
vn 1.000000 0.000000 0.000000
vn 1.000000 0.000000 0.000000
vn 1.000000 0.000000 0.000000
vn 1.000000 0.000000 0.000000
vn 1.000000 0.000000 0.000000
vn 0.000000 1.000000 0.000000
vn 0.000000 1.000000 0.000000
vn -1.000000 0.000000 0.000000
vn -1.000000 0.000000 0.000000
vn -1.000000 0.000000 0.000000
vn -1.000000 0.000000 0.000000
vn -1.000000 0.000000 0.000000
vn -1.000000 0.000000 0.000000
vn -1.000000 0.000000 0.000000
vn -1.000000 0.000000 0.000000
vn -1.000000 0.000000 0.000000
vn -1.000000 0.000000 0.000000
vn -1.000000 0.000000 0.000000
vn -1.000000 0.000000 0.000000
vn 1.000000 0.000000 0.000000
vn 1.000000 0.000000 0.000000
vn 1.000000 0.000000 0.000000
vn 1.000000 0.000000 0.000000
vn 0.000000 0.000000 1.000000
vn 0.000000 0.000000 1.000000
vn -1.000000 0.000000 0.000000
vn -1.000000 0.000000 0.000000
vn -1.000000 0.000000 0.000000
vn -1.000000 0.000000 0.000000
vn 0.000000 0.000000 -1.000000
vn 0.000000 0.000000 -1.000000
vn 0.000000 1.000000 0.000000
vn 0.000000 1.000000 0.000000
vn 0.000000 1.000000 0.000000
vn 0.000000 1.000000 0.000000
vn 0.000000 0.000000 1.000000
vn 0.000000 0.000000 1.000000
vn 0.000000 0.000000 1.000000
vn 0.000000 0.000000 1.000000
vn 0.000000 -1.000000 0.000000
vn 0.000000 -1.000000 0.000000
vn 0.000000 -1.000000 0.000000
vn 0.000000 -1.000000 0.000000
vn 0.000000 0.000000 -1.000000
vn 0.000000 0.000000 -1.000000
vn 0.000000 0.000000 -1.000000
vn 0.000000 0.000000 -1.000000
vn 0.000000 1.000000 0.000000
vn 0.000000 1.000000 0.000000
vn 0.000000 1.000000 0.000000
vn 0.000000 1.000000 0.000000
vn 0.000000 0.000000 1.000000
vn 0.000000 0.000000 1.000000
vn 0.000000 0.000000 1.000000
vn 0.000000 0.000000 1.000000
vn 0.000000 -1.000000 0.000000
vn 0.000000 -1.000000 0.000000
vn 0.000000 -1.000000 0.000000
vn 0.000000 -1.000000 0.000000
vn 0.000000 0.000000 -1.000000
vn 0.000000 0.000000 -1.000000
vn 0.000000 0.000000 -1.000000
vn 0.000000 0.000000 -1.000000
vn 0.000000 1.000000 0.000000
vn 0.000000 1.000000 0.000000
vn 0.000000 1.000000 0.000000
vn 0.000000 1.000000 0.000000
vn 0.000000 0.000000 1.000000
vn 0.000000 0.000000 1.000000
vn 0.000000 0.000000 1.000000
vn 0.000000 0.000000 1.000000
vn 0.000000 -1.000000 0.000000
vn 0.000000 -1.000000 0.000000
vn 0.000000 -1.000000 0.000000
vn 0.000000 -1.000000 0.000000
vn 0.000000 0.000000 -1.000000
vn 0.000000 0.000000 -1.000000
vn 0.000000 0.000000 -1.000000
vn 0.000000 0.000000 -1.000000
vn 0.000000 1.000000 0.000000
vn 0.000000 1.000000 0.000000
vn 0.000000 1.000000 0.000000
vn 0.000000 1.000000 0.000000
vn 0.000000 0.000000 1.000000
vn 0.000000 0.000000 1.000000
vn 0.000000 0.000000 1.000000
vn 0.000000 0.000000 1.000000
vn 0.000000 -1.000000 0.000000
vn 0.000000 -1.000000 0.000000
vn 0.000000 -1.000000 0.000000
vn 0.000000 -1.000000 0.000000
vn 0.000000 0.000000 -1.000000
vn 0.000000 0.000000 -1.000000
vn 0.000000 0.000000 -1.000000
vn 0.000000 0.000000 -1.000000
vn 0.000000 1.000000 0.000000
vn 0.000000 1.000000 0.000000
vn 0.000000 1.000000 0.000000
vn 0.000000 1.000000 0.000000
vn 0.000000 0.000000 1.000000
vn 0.000000 0.000000 1.000000
vn 0.000000 0.000000 1.000000
vn 0.000000 0.000000 1.000000
vn 0.000000 -1.000000 0.000000
vn 0.000000 -1.000000 0.000000
vn 0.000000 -1.000000 0.000000
vn 0.000000 -1.000000 0.000000
vn 0.000000 0.000000 -1.000000
vn 0.000000 0.000000 -1.000000
vn 0.000000 0.000000 -1.000000
vn 0.000000 0.000000 -1.000000
vn 0.000000 0.000000 1.000000
vn 0.000000 0.000000 1.000000
vn 0.000000 0.000000 1.000000
vn 0.000000 0.000000 1.000000
vn 0.000000 -1.000000 0.000000
vn 0.000000 -1.000000 0.000000
vn 0.000000 -1.000000 0.000000
vn 0.000000 -1.000000 0.000000
vn 0.000000 0.000000 -1.000000
vn 0.000000 0.000000 -1.000000
vn 0.000000 0.000000 -1.000000
vn 0.000000 0.000000 -1.000000
vn 0.000000 -1.000000 0.000000
vn 0.000000 -1.000000 0.000000
vn 0.000000 -1.000000 0.000000
vn 0.000000 -1.000000 0.000000
vn 0.000000 -1.000000 0.000000
vn 0.000000 -1.000000 0.000000
vn 0.000000 -1.000000 0.000000
vn 0.000000 -1.000000 0.000000
vn 0.000000 -1.000000 0.000000
vn 0.000000 -1.000000 0.000000
vn 0.000000 -1.000000 0.000000
vn 0.000000 -1.000000 0.000000
vn 0.000000 -1.000000 0.000000
vn 0.000000 -1.000000 0.000000
vn 0.000000 -1.000000 0.000000
vn 0.000000 -1.000000 0.000000
vn 0.000000 -1.000000 0.000000
vn 0.000000 -1.000000 0.000000
s 1
g Shelves finished
usemtl initialShadingGroup
f 50/1/1 85/2/2 86/3/3 49/4/4
s 2
f 9/5/5 10/6/6 15/7/7 16/8/8
s 3
f 83/9/9 84/10/10 51/11/11 52/12/12
s 4
f 11/13/13 12/14/14 13/15/15 14/16/16
s 5
f 87/17/17 88/18/18 71/19/19 72/20/20
s 2
f 17/21/21 18/22/22 23/23/23 24/24/24
s 3
f 81/25/25 82/26/26 53/27/27 54/28/28
s 4
f 19/29/29 20/30/30 21/31/31 22/32/32
s 5
f 89/33/33 90/34/34 69/35/35 70/36/36
s 2
f 25/37/37 26/38/38 31/39/39 32/40/40
s 3
f 79/41/41 80/42/42 55/43/43 56/44/44
s 4
f 27/45/45 28/46/46 29/47/47 30/48/48
s 5
f 91/49/49 92/50/50 67/51/51 68/52/52
s 2
f 33/53/53 34/54/54 39/55/55 40/56/56
s 3
f 77/57/57 78/58/58 57/59/59 58/60/60
s 4
f 35/61/61 36/62/62 37/63/63 38/64/64
s 5
f 93/65/65 94/66/66 65/67/67 66/68/68
s 2
f 41/69/69 42/70/70 47/71/71 48/72/72
s 3
f 75/73/73 76/74/74 59/75/75 60/76/76
s 4
f 43/77/77 44/78/78 46/79/79 45/80/80
s 5
f 95/81/81 96/82/82 63/83/83 64/84/84
f 63/83/83 96/82/82 73/85/85 62/86/86
s 2
f 47/71/71 42/70/70 6/87/87 4/88/88
s 4
f 1/89/89 5/90/90 43/77/77 45/80/80
s off
f 125/91/91 126/92/92 127/93/93 128/94/94
f 106/95/95 105/96/96 107/97/97 108/98/98
s 4
f 13/15/15 12/14/14 100/99/99 101/100/100
s 5
f 102/101/101 103/102/102 87/17/17 72/20/20
s 2
f 104/103/103 97/104/104 9/5/5 16/8/8
s off
f 110/105/105 109/106/106 111/107/107 112/108/108
s 4
f 21/31/31 20/30/30 11/13/13 14/16/16
s 5
f 71/19/19 88/18/18 89/33/33 70/36/36
s 2
f 15/7/7 10/6/6 17/21/21 24/24/24
s off
f 114/109/109 113/110/110 115/111/111 116/112/112
s 4
f 29/47/47 28/46/46 19/29/29 22/32/32
s 5
f 69/35/35 90/34/34 91/49/49 68/52/52
s 2
f 23/23/23 18/22/22 25/37/37 32/40/40
s off
f 118/113/113 117/114/114 119/115/115 120/116/116
s 4
f 37/63/63 36/62/62 27/45/45 30/48/48
s 5
f 67/51/51 92/50/50 93/65/65 66/68/68
s 2
f 31/39/39 26/38/38 33/53/53 40/56/56
s off
f 122/117/117 121/118/118 123/119/119 124/120/120
s 4
f 46/79/79 44/78/78 35/61/61 38/64/64
s 5
f 65/67/67 94/66/66 95/81/81 64/84/84
s 2
f 39/55/55 34/54/54 41/69/69 48/72/72
s 1
f 2/121/121 8/122/122 50/1/1 49/4/4
s 3
f 51/11/11 99/123/123 100/99/124 12/14/125
f 52/12/12 51/11/11 12/14/125 11/13/126
f 53/27/27 52/12/12 11/13/126 20/30/127
f 54/28/28 53/27/27 20/30/127 19/29/128
f 55/43/43 54/28/28 19/29/128 28/46/129
f 56/44/44 55/43/43 28/46/129 27/45/130
f 57/59/59 56/44/44 27/45/130 36/62/131
f 58/60/60 57/59/59 36/62/131 35/61/132
f 59/75/75 58/60/60 35/61/132 44/78/133
f 60/76/76 59/75/75 44/78/133 43/77/134
f 61/124/135 60/76/76 43/77/134 5/90/136
s 5
f 63/83/83 62/86/86 1/89/137 45/80/138
f 45/80/138 46/79/139 64/84/84 63/83/83
f 65/67/67 64/84/84 46/79/139 38/64/140
f 38/64/140 37/63/141 66/68/68 65/67/67
f 67/51/51 66/68/68 37/63/141 30/48/142
f 30/48/142 29/47/143 68/52/52 67/51/51
f 69/35/35 68/52/52 29/47/143 22/32/144
f 22/32/144 21/31/145 70/36/36 69/35/35
f 71/19/19 70/36/36 21/31/145 14/16/146
f 14/16/146 13/15/147 72/20/20 71/19/19
f 101/100/148 102/101/101 72/20/20 13/15/147
s 3
f 6/87/149 42/70/150 75/73/73 74/125/151
f 42/70/150 41/69/152 76/74/74 75/73/73
f 41/69/152 34/54/153 77/57/57 76/74/74
f 34/54/153 33/53/154 78/58/58 77/57/57
f 33/53/154 26/38/155 79/41/41 78/58/58
f 26/38/155 25/37/156 80/42/42 79/41/41
f 25/37/156 18/22/157 81/25/25 80/42/42
f 18/22/157 17/21/158 82/26/26 81/25/25
f 17/21/158 10/6/159 83/9/9 82/26/26
f 10/6/159 9/5/160 84/10/10 83/9/9
f 9/5/160 97/104/161 98/126/162 84/10/10
s 1
f 86/3/3 85/2/2 7/127/163 3/128/164
s 5
f 16/8/165 87/17/17 103/102/102 104/103/166
f 88/18/18 87/17/17 16/8/165 15/7/167
f 24/24/168 89/33/33 88/18/18 15/7/167
f 90/34/34 89/33/33 24/24/168 23/23/169
f 32/40/170 91/49/49 90/34/34 23/23/169
f 92/50/50 91/49/49 32/40/170 31/39/171
f 40/56/172 93/65/65 92/50/50 31/39/171
f 94/66/66 93/65/65 40/56/172 39/55/173
f 48/72/174 95/81/81 94/66/66 39/55/173
f 96/82/82 95/81/81 48/72/174 47/71/175
f 4/88/176 73/85/85 96/82/82 47/71/175
s 3
f 98/126/162 97/104/161 7/127/177 85/2/178
f 99/123/123 98/126/162 85/2/178 50/1/179
f 100/99/124 99/123/123 50/1/179 8/122/180
s 4
f 101/100/100 100/99/99 8/122/181 2/121/182
s 5
f 49/4/183 102/101/101 101/100/148 2/121/184
f 86/3/185 103/102/102 102/101/101 49/4/183
f 104/103/166 103/102/102 86/3/185 3/128/186
s 2
f 3/128/187 7/127/188 97/104/104 104/103/103
s off
f 51/11/189 84/10/190 105/96/191 106/95/192
f 84/10/193 98/126/194 107/97/195 105/96/196
f 98/126/197 99/123/198 108/98/199 107/97/200
f 99/123/201 51/11/202 106/95/203 108/98/204
f 53/27/205 82/26/206 109/106/207 110/105/208
f 82/26/209 83/9/210 111/107/211 109/106/212
f 83/9/213 52/12/214 112/108/215 111/107/216
f 52/12/217 53/27/218 110/105/219 112/108/220
f 55/43/221 80/42/222 113/110/223 114/109/224
f 80/42/225 81/25/226 115/111/227 113/110/228
f 81/25/229 54/28/230 116/112/231 115/111/232
f 54/28/233 55/43/234 114/109/235 116/112/236
f 57/59/237 78/58/238 117/114/239 118/113/240
f 78/58/241 79/41/242 119/115/243 117/114/244
f 79/41/245 56/44/246 120/116/247 119/115/248
f 56/44/249 57/59/250 118/113/251 120/116/252
f 59/75/253 76/74/254 121/118/255 122/117/256
f 76/74/257 77/57/258 123/119/259 121/118/260
f 77/57/261 58/60/262 124/120/263 123/119/264
f 58/60/265 59/75/266 122/117/267 124/120/268
f 74/125/269 75/73/270 126/92/271 125/91/272
f 75/73/273 60/76/274 127/93/275 126/92/276
f 60/76/277 61/124/278 128/94/279 127/93/280
f 62/86/281 73/85/282 125/91/283 128/94/284
f 5/90/285 1/89/286 62/86/287 128/94/288
f 4/88/289 6/87/290 125/91/291 73/85/292
f 61/124/293 5/90/294 128/94/295
f 6/87/296 74/125/297 125/91/298
