# This file uses centimeters as units for non-parametric coordinates.

mtllib TableEnd.mtl
g default
v 1.000000 0.905922 1.000000
v 1.000000 0.988326 1.000000
v 1.000000 0.988326 -1.000000
v 1.000000 0.905922 -1.000000
v -1.000000 0.905922 0.770023
v -0.770023 0.905922 1.000000
v -0.885012 0.905922 0.969189
v -0.969189 0.905922 0.885011
v -1.000000 0.988326 0.770023
v -0.969189 0.988326 0.885011
v -0.885012 0.988326 0.969189
v -0.770023 0.988326 1.000000
v -0.885012 0.988326 -0.969189
v -0.969189 0.988326 -0.885011
v -1.000000 0.988326 -0.770023
v -0.770023 0.988326 -1.000000
v -1.000000 0.905922 -0.770023
v -0.969189 0.905922 -0.885011
v -0.885012 0.905922 -0.969189
v -0.770023 0.905922 -1.000000
v 0.113229 0.164957 -0.113228
v 0.000000 0.164957 -0.160128
v -0.113228 0.164957 -0.113228
v -0.160128 0.164957 0.000000
v -0.113228 0.164957 0.113228
v 0.000000 0.164957 0.160128
v 0.113229 0.164957 0.113228
v 0.160130 0.164957 0.000000
v 0.113229 0.781894 -0.113228
v 0.000000 0.781894 -0.160128
v -0.113228 0.781894 -0.113228
v -0.160128 0.781894 0.000000
v -0.113228 0.781894 0.113228
v 0.000000 0.781894 0.160128
v 0.113229 0.781894 0.113228
v 0.160130 0.781894 0.000000
v 0.145740 0.519588 -0.145738
v 0.150776 0.408867 -0.150776
v 0.138685 0.298905 -0.138685
v 0.196131 0.298905 0.000000
v 0.213228 0.408867 0.000000
v 0.206105 0.519588 0.000000
v 0.138685 0.298905 0.138685
v 0.150776 0.408867 0.150776
v 0.145740 0.519588 0.145738
v 0.000000 0.298905 0.196130
v 0.000000 0.408867 0.213229
v 0.000000 0.519588 0.206105
v -0.138685 0.298905 0.138685
v -0.150776 0.408867 0.150776
v -0.145739 0.519588 0.145738
v -0.196128 0.298905 0.000000
v -0.213229 0.408867 0.000000
v -0.206104 0.519588 0.000000
v -0.138685 0.298905 -0.138685
v -0.150776 0.408867 -0.150776
v -0.145739 0.519588 -0.145738
v 0.000000 0.298905 -0.196130
v 0.000000 0.408867 -0.213229
v 0.000000 0.519588 -0.206105
v 0.464734 0.000000 -0.351474
v 0.351474 0.000000 -0.464734
v 0.464734 0.114763 -0.351474
v 0.351474 0.114763 -0.464734
v -0.351474 0.114763 0.464734
v -0.464734 0.114763 0.351474
v -0.351474 0.000000 0.464734
v -0.464734 0.000000 0.351474
v 0.162726 0.283689 -0.049466
v -0.049466 0.283689 0.162727
v -0.162726 0.283689 0.049466
v 0.049466 0.283689 -0.162727
v -0.162726 0.168926 0.049466
v 0.049466 0.168926 -0.162727
v -0.049466 0.168926 0.162727
v 0.162726 0.168926 -0.049466
v 0.351474 0.000000 0.464734
v 0.464734 0.000000 0.351474
v 0.351474 0.114763 0.464734
v 0.464734 0.114763 0.351474
v -0.464734 0.114763 -0.351474
v -0.351474 0.114763 -0.464734
v -0.464734 0.000000 -0.351474
v -0.351474 0.000000 -0.464734
v 0.049466 0.283689 0.162727
v -0.162726 0.283689 -0.049466
v -0.049466 0.283689 -0.162727
v 0.162726 0.283689 0.049466
v -0.049466 0.168926 -0.162727
v 0.162726 0.168926 0.049466
v -0.162726 0.168926 -0.049466
v 0.049466 0.168926 0.162727
vt 0.028431 0.664763
vt 0.028431 0.648653
vt 0.028431 0.648653
vt 0.028431 0.664763
vt 0.103767 0.648653
vt 0.103767 0.664763
vt 0.103767 0.664763
vt 0.103767 0.648653
vt 0.095104 0.664763
vt 0.095104 0.648653
vt 0.037094 0.648653
vt 0.037094 0.664763
vt 0.032763 0.648653
vt 0.032763 0.664763
vt 0.029592 0.648653
vt 0.029592 0.664763
vt 0.099435 0.664763
vt 0.099435 0.648653
vt 0.102606 0.664763
vt 0.102606 0.648653
vt 0.187940 0.461442
vt 0.188221 0.466599
vt 0.184726 0.466599
vt 0.184726 0.461442
vt 0.188104 0.471792
vt 0.184726 0.471792
vt 0.187351 0.455160
vt 0.188437 0.455160
vt 0.189272 0.461442
vt 0.187351 0.455160
vt 0.187940 0.461442
vt 0.184726 0.455160
vt 0.184726 0.461442
vt 0.182102 0.455160
vt 0.181512 0.461442
vt 0.181015 0.455160
vt 0.180181 0.461442
vt 0.182102 0.455160
vt 0.181512 0.461442
vt 0.184726 0.455160
vt 0.187351 0.484093
vt 0.184726 0.484093
vt 0.181349 0.471792
vt 0.182102 0.484093
vt 0.179950 0.471792
vt 0.181015 0.484093
vt 0.181349 0.471792
vt 0.182102 0.484093
vt 0.184726 0.471792
vt 0.184726 0.484093
vt 0.188104 0.471792
vt 0.187351 0.484093
vt 0.189503 0.471792
vt 0.188437 0.484093
vt 0.181232 0.466599
vt 0.179785 0.466599
vt 0.181232 0.466599
vt 0.184726 0.466599
vt 0.188221 0.466599
vt 0.189668 0.466599
vt 0.204892 0.445612
vt 0.210094 0.445612
vt 0.210094 0.456277
vt 0.204892 0.456277
vt 0.167409 0.456277
vt 0.172610 0.456277
vt 0.172610 0.445612
vt 0.167409 0.445612
vt 0.191023 0.471976
vt 0.181278 0.471976
vt 0.181278 0.461310
vt 0.191023 0.461310
vt 0.196224 0.471976
vt 0.186480 0.471976
vt 0.196224 0.461310
vt 0.186480 0.461310
vt 0.167409 0.445612
vt 0.172610 0.445612
vt 0.172610 0.456277
vt 0.167409 0.456277
vt 0.204892 0.456277
vt 0.210094 0.456277
vt 0.210094 0.445612
vt 0.204892 0.445612
vt 0.181278 0.471976
vt 0.191023 0.471976
vt 0.191023 0.461310
vt 0.181278 0.461310
vt 0.186480 0.471976
vt 0.196224 0.471976
vt 0.186480 0.461310
vt 0.196224 0.461310
vn -0.016343 0.000000 0.999867
vn -0.016343 0.000000 0.999867
vn 0.000000 0.000000 1.000000
vn 0.000000 0.000000 1.000000
vn -0.016343 0.000000 -0.999867
vn -0.016343 0.000000 -0.999867
vn 0.000000 0.000000 -1.000000
vn 0.000000 0.000000 -1.000000
vn 1.000000 0.000000 0.000000
vn 1.000000 0.000000 0.000000
vn 1.000000 0.000000 0.000000
vn 1.000000 0.000000 0.000000
vn -0.999827 0.000000 -0.018613
vn -0.999827 0.000000 -0.018613
vn -0.999827 0.000000 0.018613
vn -0.999827 0.000000 0.018613
vn -0.866026 0.000000 0.499999
vn -0.866026 0.000000 0.499999
vn -0.500001 0.000000 0.866025
vn -0.500001 0.000000 0.866025
vn -0.866026 0.000000 -0.499999
vn -0.866026 0.000000 -0.499999
vn -0.500001 0.000000 -0.866025
vn -0.500001 0.000000 -0.866025
vn 0.000000 1.000000 0.000000
vn 0.000000 1.000000 0.000000
vn 0.000000 1.000000 0.000000
vn 0.000000 1.000000 0.000000
vn 0.000000 1.000000 0.000000
vn 0.000000 1.000000 0.000000
vn 0.000000 1.000000 0.000000
vn 0.000000 1.000000 0.000000
vn 0.000000 1.000000 0.000000
vn 0.000000 1.000000 0.000000
vn 0.000000 -1.000000 0.000000
vn 0.000000 -1.000000 0.000000
vn 0.000000 -1.000000 0.000000
vn 0.000000 -1.000000 0.000000
vn 0.000000 -1.000000 0.000000
vn 0.000000 -1.000000 0.000000
vn 0.000000 -1.000000 0.000000
vn 0.000000 -1.000000 0.000000
vn 0.000000 -1.000000 0.000000
vn 0.000000 -1.000000 0.000000
vn 0.691887 -0.206354 -0.691889
vn 0.706464 -0.042610 -0.706465
vn 0.999092 -0.042609 -0.000000
vn 0.978478 -0.206352 -0.000000
vn 0.700498 0.136403 -0.700498
vn 0.990654 0.136401 -0.000000
vn 0.682871 -0.259558 -0.682874
vn -0.000000 -0.259560 -0.965727
vn -0.000000 -0.206357 -0.978477
vn -0.682875 -0.259560 -0.682870
vn -0.691890 -0.206359 -0.691885
vn -0.965728 -0.259556 0.000000
vn -0.978476 -0.206359 0.000000
vn -0.682875 -0.259560 0.682870
vn -0.691890 -0.206359 0.691885
vn -0.000000 -0.259560 0.965727
vn 0.000000 -0.206357 0.978477
vn 0.682871 -0.259558 0.682874
vn 0.691887 -0.206354 0.691889
vn 0.965728 -0.259558 -0.000000
vn 0.696488 0.172647 -0.696490
vn 0.984984 0.172645 0.000000
vn 0.700498 0.136403 0.700498
vn 0.696488 0.172647 0.696490
vn 0.000000 0.136405 0.990653
vn -0.000000 0.172647 0.984984
vn -0.700499 0.136406 0.700496
vn -0.696490 0.172648 0.696487
vn -0.990653 0.136406 0.000000
vn -0.984984 0.172647 -0.000000
vn -0.700499 0.136406 -0.700496
vn -0.696490 0.172648 -0.696487
vn 0.000000 0.136404 -0.990653
vn -0.000000 0.172647 -0.984984
vn 0.706464 -0.042610 0.706465
vn 0.000000 -0.042610 0.999092
vn -0.706466 -0.042610 0.706463
vn -0.999092 -0.042611 0.000000
vn -0.706466 -0.042610 -0.706464
vn -0.000000 -0.042610 -0.999092
vn 0.707108 0.000000 -0.707106
vn 0.707108 0.000000 -0.707106
vn 0.707108 0.000000 -0.707106
vn 0.707108 0.000000 -0.707106
vn -0.707108 0.000000 0.707106
vn -0.707108 0.000000 0.707106
vn -0.707108 0.000000 0.707106
vn -0.707108 0.000000 0.707106
vn 0.707107 0.000000 0.707106
vn 0.707107 0.000000 0.707107
vn 0.707107 0.000000 0.707107
vn 0.707107 0.000000 0.707107
vn -0.160001 0.974063 0.160001
vn 0.160001 0.974064 -0.160000
vn 0.160001 0.974063 -0.160001
vn -0.160001 0.974064 0.160000
vn -0.707107 0.000000 -0.707106
vn -0.707107 0.000000 -0.707107
vn -0.707107 0.000000 -0.707107
vn -0.707107 0.000000 -0.707107
vn 0.160001 -0.974064 -0.160000
vn -0.160001 -0.974063 0.160000
vn -0.160001 -0.974064 0.160000
vn 0.160001 -0.974064 -0.160001
vn -0.260069 0.929908 0.260069
vn -0.260069 0.929908 0.260069
vn 0.260069 -0.929908 -0.260069
vn 0.260069 -0.929908 -0.260069
vn -0.707107 0.000000 -0.707107
vn -0.707107 0.000000 -0.707107
vn 0.707107 0.000000 0.707107
vn 0.707107 0.000000 0.707107
vn 0.260069 0.929908 -0.260069
vn 0.260069 0.929908 -0.260069
vn -0.707107 0.000000 -0.707107
vn -0.707107 0.000000 -0.707107
vn -0.260069 -0.929908 0.260069
vn -0.260069 -0.929908 0.260069
vn 0.707107 0.000000 0.707107
vn 0.707107 0.000000 0.707107
vn 0.707108 0.000000 0.707106
vn 0.707108 0.000000 0.707106
vn 0.707108 0.000000 0.707106
vn 0.707108 0.000000 0.707106
vn -0.707108 0.000000 -0.707106
vn -0.707108 0.000000 -0.707106
vn -0.707108 0.000000 -0.707106
vn -0.707108 0.000000 -0.707106
vn -0.707107 0.000000 0.707107
vn -0.707107 0.000000 0.707107
vn -0.707107 0.000000 0.707107
vn -0.707107 0.000000 0.707107
vn -0.160001 0.974064 -0.160000
vn 0.160001 0.974063 0.160001
vn 0.160001 0.974064 0.160000
vn -0.160001 0.974063 -0.160001
vn 0.707107 0.000000 -0.707107
vn 0.707107 0.000000 -0.707107
vn 0.707107 0.000000 -0.707107
vn 0.707107 0.000000 -0.707107
vn 0.160001 -0.974063 0.160001
vn -0.160001 -0.974064 -0.160000
vn -0.160001 -0.974063 -0.160001
vn 0.160001 -0.974064 0.160000
vn -0.260069 0.929908 -0.260069
vn -0.260069 0.929908 -0.260069
vn 0.260069 -0.929908 0.260069
vn 0.260069 -0.929908 0.260069
vn 0.707107 0.000000 -0.707107
vn 0.707107 0.000000 -0.707107
vn -0.707107 0.000000 0.707107
vn -0.707107 0.000000 0.707107
vn 0.260069 0.929908 0.260069
vn 0.260069 0.929908 0.260069
vn 0.707107 0.000000 -0.707107
vn 0.707107 0.000000 -0.707107
vn -0.260069 -0.929908 -0.260069
vn -0.260069 -0.929908 -0.260069
vn -0.707107 0.000000 0.707107
vn -0.707107 0.000000 0.707107
s 1
g TableEnd finished
usemtl initialShadingGroup
f 12/1/1 6/2/2 1/3/3 2/4/4
f 20/5/5 16/6/6 3/7/7 4/8/8
s off
f 1/3/9 4/8/10 3/7/11 2/4/12
s 1
f 15/9/13 17/10/14 5/11/15 9/12/16
f 5/11/15 8/13/17 10/14/18 9/12/16
f 8/13/17 7/15/19 11/16/20 10/14/18
f 7/15/19 6/2/2 12/1/1 11/16/20
f 15/9/13 14/17/21 18/18/22 17/10/14
f 14/17/21 13/19/23 19/20/24 18/18/22
f 13/19/23 16/6/6 20/5/5 19/20/24
s off
f 13/19/25 14/17/26 15/9/27 9/12/28 10/14/29 11/16/30 12/1/31 2/4/32 3/7/33 16/6/34
f 4/8/35 1/3/36 6/2/37 7/15/38 8/13/39 5/11/40 17/10/41 18/18/42 19/20/43 20/5/44
s 4
f 39/21/45 38/22/46 41/23/47 40/24/48
f 38/22/46 37/25/49 42/26/50 41/23/47
f 21/27/51 22/28/52 58/29/53 39/21/45
f 22/28/52 23/30/54 55/31/55 58/29/53
f 23/30/54 24/32/56 52/33/57 55/31/55
f 24/32/56 25/34/58 49/35/59 52/33/57
f 25/34/58 26/36/60 46/37/61 49/35/59
f 26/36/60 27/38/62 43/39/63 46/37/61
f 27/38/62 28/40/64 40/24/48 43/39/63
f 28/40/64 21/27/51 39/21/45 40/24/48
f 42/26/50 37/25/49 29/41/65 36/42/66
f 45/43/67 42/26/50 36/42/66 35/44/68
f 48/45/69 45/43/67 35/44/68 34/46/70
f 51/47/71 48/45/69 34/46/70 33/48/72
f 54/49/73 51/47/71 33/48/72 32/50/74
f 57/51/75 54/49/73 32/50/74 31/52/76
f 60/53/77 57/51/75 31/52/76 30/54/78
f 37/25/49 60/53/77 30/54/78 29/41/65
f 40/24/48 41/23/47 44/55/79 43/39/63
f 41/23/47 42/26/50 45/43/67 44/55/79
f 43/39/63 44/55/79 47/56/80 46/37/61
f 44/55/79 45/43/67 48/45/69 47/56/80
f 46/37/61 47/56/80 50/57/81 49/35/59
f 47/56/80 48/45/69 51/47/71 50/57/81
f 49/35/59 50/57/81 53/58/82 52/33/57
f 50/57/81 51/47/71 54/49/73 53/58/82
f 52/33/57 53/58/82 56/59/83 55/31/55
f 53/58/82 54/49/73 57/51/75 56/59/83
f 55/31/55 56/59/83 59/60/84 58/29/53
f 56/59/83 57/51/75 60/53/77 59/60/84
f 37/25/49 38/22/46 59/60/84 60/53/77
f 38/22/46 39/21/45 58/29/53 59/60/84
s off
f 61/61/85 62/62/86 64/63/87 63/64/88
f 65/65/89 66/66/90 68/67/91 67/68/92
s 6
f 69/69/93 70/70/94 75/71/95 76/72/96
s 7
f 70/70/97 69/69/98 72/73/99 71/74/100
s 8
f 71/74/101 72/73/102 74/75/103 73/76/104
s 9
f 73/76/105 74/75/106 76/72/107 75/71/108
s 7
f 70/70/97 71/74/100 66/66/109 65/65/110
s 9
f 67/68/111 68/67/112 73/76/105 75/71/108
s 8
f 71/74/101 73/76/104 68/67/113 66/66/114
s 6
f 67/68/115 75/71/95 70/70/94 65/65/116
s 7
f 63/64/117 64/63/118 72/73/99 69/69/98
s 8
f 62/62/119 74/75/103 72/73/102 64/63/120
s 9
f 76/72/107 74/75/106 62/62/121 61/61/122
s 6
f 69/69/93 76/72/96 61/61/123 63/64/124
s off
f 77/77/125 78/78/126 80/79/127 79/80/128
f 81/81/129 82/82/130 84/83/131 83/84/132
s 10
f 85/85/133 86/86/134 91/87/135 92/88/136
s 11
f 86/86/137 85/85/138 88/89/139 87/90/140
s 12
f 87/90/141 88/89/142 90/91/143 89/92/144
s 13
f 89/92/145 90/91/146 92/88/147 91/87/148
s 11
f 86/86/137 87/90/140 82/82/149 81/81/150
s 13
f 83/84/151 84/83/152 89/92/145 91/87/148
s 12
f 87/90/141 89/92/144 84/83/153 82/82/154
s 10
f 83/84/155 91/87/135 86/86/134 81/81/156
s 11
f 79/80/157 80/79/158 88/89/139 85/85/138
s 12
f 78/78/159 90/91/143 88/89/142 80/79/160
s 13
f 92/88/147 90/91/146 78/78/161 77/77/162
s 10
f 85/85/133 92/88/136 77/77/163 79/80/164
