# This file uses centimeters as units for non-parametric coordinates.

mtllib TableMid.mtl
g default
v 0.113228 0.164957 -0.113228
v 0.000000 0.164957 -0.160128
v -0.113228 0.164957 -0.113228
v -0.160128 0.164957 0.000000
v -0.113228 0.164957 0.113228
v 0.000000 0.164957 0.160128
v 0.113228 0.164957 0.113228
v 0.160130 0.164957 0.000000
v 0.113228 0.781894 -0.113228
v 0.000000 0.781894 -0.160128
v -0.113228 0.781894 -0.113228
v -0.160128 0.781894 0.000000
v -0.113228 0.781894 0.113228
v 0.000000 0.781894 0.160128
v 0.113228 0.781894 0.113228
v 0.160130 0.781894 0.000000
v 0.145739 0.519588 -0.145738
v 0.150776 0.408867 -0.150776
v 0.138685 0.298905 -0.138685
v 0.196131 0.298905 0.000000
v 0.213228 0.408867 0.000000
v 0.206104 0.519588 0.000000
v 0.138685 0.298905 0.138685
v 0.150776 0.408867 0.150776
v 0.145739 0.519588 0.145738
v 0.000000 0.298905 0.196130
v 0.000000 0.408867 0.213229
v 0.000000 0.519588 0.206105
v -0.138687 0.298905 0.138685
v -0.150776 0.408867 0.150776
v -0.145739 0.519588 0.145738
v -0.196129 0.298905 0.000000
v -0.213230 0.408867 0.000000
v -0.206104 0.519588 0.000000
v -0.138687 0.298905 -0.138685
v -0.150776 0.408867 -0.150776
v -0.145739 0.519588 -0.145738
v 0.000000 0.298905 -0.196130
v 0.000000 0.408867 -0.213229
v 0.000000 0.519588 -0.206105
v -1.000000 0.905922 1.000000
v 1.000000 0.905922 1.000000
v -1.000000 0.988326 1.000000
v 1.000000 0.988326 1.000000
v -1.000000 0.988326 -1.000000
v 1.000000 0.988326 -1.000000
v -1.000000 0.905922 -1.000000
v 1.000000 0.905922 -1.000000
v 0.351475 0.000000 0.464734
v 0.464733 0.000000 0.351474
v 0.351475 0.114763 0.464734
v 0.464733 0.114763 0.351474
v -0.464733 0.114763 -0.351474
v -0.351474 0.114763 -0.464734
v -0.464733 0.000000 -0.351474
v -0.351474 0.000000 -0.464734
v 0.049465 0.283689 0.162727
v -0.162727 0.283689 -0.049466
v -0.049466 0.283689 -0.162727
v 0.162727 0.283689 0.049466
v -0.049466 0.168926 -0.162727
v 0.162727 0.168926 0.049466
v -0.162727 0.168926 -0.049466
v 0.049465 0.168926 0.162727
v 0.464733 0.000000 -0.351474
v 0.351475 0.000000 -0.464734
v 0.464733 0.114763 -0.351474
v 0.351475 0.114763 -0.464734
v -0.351475 0.114763 0.464734
v -0.464734 0.114763 0.351474
v -0.351475 0.000000 0.464734
v -0.464734 0.000000 0.351474
v 0.162727 0.283689 -0.049466
v -0.049465 0.283689 0.162727
v -0.162727 0.283689 0.049466
v 0.049465 0.283689 -0.162727
v -0.162727 0.168926 0.049466
v 0.049465 0.168926 -0.162727
v -0.049465 0.168926 0.162727
v 0.162727 0.168926 -0.049466
vt 0.187940 0.461442
vt 0.188221 0.466599
vt 0.184726 0.466599
vt 0.184726 0.461442
vt 0.188104 0.471792
vt 0.184726 0.471792
vt 0.187351 0.455160
vt 0.188437 0.455160
vt 0.189272 0.461442
vt 0.187351 0.455160
vt 0.187940 0.461442
vt 0.184726 0.455160
vt 0.184726 0.461442
vt 0.182102 0.455160
vt 0.181512 0.461442
vt 0.181015 0.455160
vt 0.180181 0.461442
vt 0.182102 0.455160
vt 0.181512 0.461442
vt 0.184726 0.455160
vt 0.187351 0.484093
vt 0.184726 0.484093
vt 0.181349 0.471792
vt 0.182102 0.484093
vt 0.179950 0.471792
vt 0.181015 0.484093
vt 0.181349 0.471792
vt 0.182102 0.484093
vt 0.184726 0.471792
vt 0.184726 0.484093
vt 0.188104 0.471792
vt 0.187351 0.484093
vt 0.189503 0.471792
vt 0.188437 0.484093
vt 0.181232 0.466599
vt 0.179785 0.466599
vt 0.181232 0.466599
vt 0.184726 0.466599
vt 0.188221 0.466599
vt 0.189668 0.466599
vt 0.031496 0.651072
vt 0.031496 0.651072
vt 0.031496 0.665539
vt 0.031496 0.665539
vt 0.099154 0.665539
vt 0.099154 0.665539
vt 0.099154 0.651072
vt 0.099154 0.651072
vt 0.167409 0.445612
vt 0.172610 0.445612
vt 0.172610 0.456277
vt 0.167409 0.456277
vt 0.204892 0.456277
vt 0.210094 0.456277
vt 0.210094 0.445612
vt 0.204892 0.445612
vt 0.181278 0.471976
vt 0.191023 0.471976
vt 0.191023 0.461310
vt 0.181278 0.461310
vt 0.186480 0.471976
vt 0.196224 0.471976
vt 0.186480 0.461310
vt 0.196224 0.461310
vt 0.204892 0.445612
vt 0.210094 0.445612
vt 0.210094 0.456277
vt 0.204892 0.456277
vt 0.167409 0.456277
vt 0.172610 0.456277
vt 0.172610 0.445612
vt 0.167409 0.445612
vt 0.191023 0.471976
vt 0.181278 0.471976
vt 0.181278 0.461310
vt 0.191023 0.461310
vt 0.196224 0.471976
vt 0.186480 0.471976
vt 0.196224 0.461310
vt 0.186480 0.461310
vn 0.691887 -0.206355 -0.691888
vn 0.706465 -0.042607 -0.706464
vn 0.999092 -0.042605 -0.000000
vn 0.978478 -0.206353 0.000000
vn 0.700498 0.136404 -0.700497
vn 0.990654 0.136402 0.000000
vn 0.682870 -0.259560 -0.682874
vn 0.000000 -0.259561 -0.965727
vn -0.000000 -0.206357 -0.978477
vn -0.682872 -0.259565 -0.682871
vn -0.691890 -0.206359 -0.691884
vn -0.965726 -0.259564 0.000000
vn -0.978476 -0.206360 0.000000
vn -0.682872 -0.259565 0.682871
vn -0.691890 -0.206359 0.691884
vn 0.000000 -0.259562 0.965727
vn -0.000000 -0.206357 0.978477
vn 0.682870 -0.259560 0.682874
vn 0.691887 -0.206355 0.691888
vn 0.965727 -0.259561 0.000000
vn 0.696489 0.172646 -0.696489
vn 0.984984 0.172644 0.000000
vn 0.700498 0.136404 0.700497
vn 0.696489 0.172646 0.696489
vn -0.000000 0.136405 0.990653
vn 0.000000 0.172648 0.984984
vn -0.700499 0.136406 0.700496
vn -0.696491 0.172648 0.696487
vn -0.990653 0.136407 -0.000000
vn -0.984984 0.172647 0.000000
vn -0.700499 0.136406 -0.700496
vn -0.696490 0.172648 -0.696487
vn 0.000000 0.136405 -0.990653
vn 0.000000 0.172647 -0.984984
vn 0.706465 -0.042607 0.706464
vn -0.000000 -0.042609 0.999092
vn -0.706464 -0.042607 0.706465
vn -0.999092 -0.042605 -0.000000
vn -0.706464 -0.042607 -0.706466
vn 0.000000 -0.042609 -0.999092
vn 0.000000 0.000000 1.000000
vn 0.000000 0.000000 1.000000
vn 0.000000 0.000000 1.000000
vn 0.000000 0.000000 1.000000
vn 0.000000 1.000000 0.000000
vn 0.000000 1.000000 0.000000
vn 0.000000 1.000000 0.000000
vn 0.000000 1.000000 0.000000
vn 0.000000 0.000000 -1.000000
vn 0.000000 0.000000 -1.000000
vn 0.000000 0.000000 -1.000000
vn 0.000000 0.000000 -1.000000
vn 0.000000 -1.000000 0.000000
vn 0.000000 -1.000000 0.000000
vn 0.000000 -1.000000 0.000000
vn 0.000000 -1.000000 0.000000
vn 1.000000 0.000000 0.000000
vn 1.000000 0.000000 0.000000
vn 1.000000 0.000000 0.000000
vn 1.000000 0.000000 0.000000
vn -1.000000 0.000000 0.000000
vn -1.000000 0.000000 0.000000
vn -1.000000 0.000000 0.000000
vn -1.000000 0.000000 0.000000
vn 0.707114 0.000000 0.707100
vn 0.707114 0.000000 0.707100
vn 0.707114 0.000000 0.707100
vn 0.707114 0.000000 0.707100
vn -0.707112 0.000000 -0.707102
vn -0.707112 0.000000 -0.707102
vn -0.707112 0.000000 -0.707102
vn -0.707112 0.000000 -0.707102
vn -0.707106 0.000000 0.707108
vn -0.707108 0.000000 0.707105
vn -0.707108 0.000000 0.707105
vn -0.707105 0.000000 0.707108
vn -0.160001 0.974064 -0.160000
vn 0.160000 0.974064 0.159999
vn 0.160001 0.974064 0.160000
vn -0.160000 0.974064 -0.160000
vn 0.707106 0.000000 -0.707107
vn 0.707108 0.000000 -0.707106
vn 0.707108 0.000000 -0.707105
vn 0.707106 0.000000 -0.707108
vn 0.160000 -0.974064 0.159999
vn -0.160001 -0.974064 -0.160000
vn -0.160000 -0.974064 -0.159999
vn 0.160001 -0.974064 0.160000
vn -0.260070 0.929908 -0.260069
vn -0.260070 0.929908 -0.260069
vn 0.260070 -0.929908 0.260069
vn 0.260070 -0.929908 0.260069
vn 0.707106 0.000000 -0.707108
vn 0.707106 0.000000 -0.707108
vn -0.707109 0.000000 0.707105
vn -0.707109 0.000000 0.707105
vn 0.260069 0.929908 0.260069
vn 0.260069 0.929908 0.260069
vn 0.707109 0.000000 -0.707105
vn 0.707109 0.000000 -0.707105
vn -0.260069 -0.929908 -0.260069
vn -0.260069 -0.929908 -0.260069
vn -0.707104 0.000000 0.707109
vn -0.707104 0.000000 0.707109
vn 0.707114 0.000000 -0.707100
vn 0.707114 0.000000 -0.707100
vn 0.707114 0.000000 -0.707100
vn 0.707114 0.000000 -0.707100
vn -0.707112 0.000000 0.707102
vn -0.707112 0.000000 0.707102
vn -0.707112 0.000000 0.707102
vn -0.707112 0.000000 0.707102
vn 0.707108 0.000000 0.707105
vn 0.707106 0.000000 0.707108
vn 0.707105 0.000000 0.707108
vn 0.707108 0.000000 0.707105
vn -0.160000 0.974064 0.159999
vn 0.160001 0.974064 -0.160000
vn 0.160000 0.974064 -0.159999
vn -0.160001 0.974064 0.160000
vn -0.707108 0.000000 -0.707106
vn -0.707106 0.000000 -0.707107
vn -0.707106 0.000000 -0.707108
vn -0.707108 0.000000 -0.707106
vn 0.160001 -0.974064 -0.160000
vn -0.160000 -0.974064 0.159999
vn -0.160001 -0.974064 0.160000
vn 0.160000 -0.974064 -0.159999
vn -0.260069 0.929908 0.260068
vn -0.260069 0.929908 0.260068
vn 0.260069 -0.929908 -0.260068
vn 0.260069 -0.929908 -0.260068
vn -0.707108 0.000000 -0.707106
vn -0.707108 0.000000 -0.707106
vn 0.707104 0.000000 0.707109
vn 0.707104 0.000000 0.707109
vn 0.260069 0.929908 -0.260069
vn 0.260069 0.929908 -0.260069
vn -0.707104 0.000000 -0.707109
vn -0.707104 0.000000 -0.707109
vn -0.260069 -0.929908 0.260069
vn -0.260069 -0.929908 0.260069
vn 0.707109 0.000000 0.707105
vn 0.707109 0.000000 0.707105
s 1
g TableMid finished
usemtl initialShadingGroup
f 19/1/1 18/2/2 21/3/3 20/4/4
f 18/2/2 17/5/5 22/6/6 21/3/3
f 1/7/7 2/8/8 38/9/9 19/1/1
f 2/8/8 3/10/10 35/11/11 38/9/9
f 3/10/10 4/12/12 32/13/13 35/11/11
f 4/12/12 5/14/14 29/15/15 32/13/13
f 5/14/14 6/16/16 26/17/17 29/15/15
f 6/16/16 7/18/18 23/19/19 26/17/17
f 7/18/18 8/20/20 20/4/4 23/19/19
f 8/20/20 1/7/7 19/1/1 20/4/4
f 22/6/6 17/5/5 9/21/21 16/22/22
f 25/23/23 22/6/6 16/22/22 15/24/24
f 28/25/25 25/23/23 15/24/24 14/26/26
f 31/27/27 28/25/25 14/26/26 13/28/28
f 34/29/29 31/27/27 13/28/28 12/30/30
f 37/31/31 34/29/29 12/30/30 11/32/32
f 40/33/33 37/31/31 11/32/32 10/34/34
f 17/5/5 40/33/33 10/34/34 9/21/21
f 20/4/4 21/3/3 24/35/35 23/19/19
f 21/3/3 22/6/6 25/23/23 24/35/35
f 23/19/19 24/35/35 27/36/36 26/17/17
f 24/35/35 25/23/23 28/25/25 27/36/36
f 26/17/17 27/36/36 30/37/37 29/15/15
f 27/36/36 28/25/25 31/27/27 30/37/37
f 29/15/15 30/37/37 33/38/38 32/13/13
f 30/37/37 31/27/27 34/29/29 33/38/38
f 32/13/13 33/38/38 36/39/39 35/11/11
f 33/38/38 34/29/29 37/31/31 36/39/39
f 35/11/11 36/39/39 39/40/40 38/9/9
f 36/39/39 37/31/31 40/33/33 39/40/40
f 17/5/5 18/2/2 39/40/40 40/33/33
f 18/2/2 19/1/1 38/9/9 39/40/40
s off
f 41/41/41 42/42/42 44/43/43 43/44/44
f 43/44/45 44/43/46 46/45/47 45/46/48
f 45/46/49 46/45/50 48/47/51 47/48/52
f 47/48/53 48/47/54 42/42/55 41/41/56
f 42/42/57 48/47/58 46/45/59 44/43/60
f 47/48/61 41/41/62 43/44/63 45/46/64
f 49/49/65 50/50/66 52/51/67 51/52/68
f 53/53/69 54/54/70 56/55/71 55/56/72
s 3
f 57/57/73 58/58/74 63/59/75 64/60/76
s 4
f 58/58/77 57/57/78 60/61/79 59/62/80
s 5
f 59/62/81 60/61/82 62/63/83 61/64/84
s 6
f 61/64/85 62/63/86 64/60/87 63/59/88
s 4
f 58/58/77 59/62/80 54/54/89 53/53/90
s 6
f 55/56/91 56/55/92 61/64/85 63/59/88
s 5
f 59/62/81 61/64/84 56/55/93 54/54/94
s 3
f 55/56/95 63/59/75 58/58/74 53/53/96
s 4
f 51/52/97 52/51/98 60/61/79 57/57/78
s 5
f 50/50/99 62/63/83 60/61/82 52/51/100
s 6
f 64/60/87 62/63/86 50/50/101 49/49/102
s 3
f 57/57/73 64/60/76 49/49/103 51/52/104
s off
f 65/65/105 66/66/106 68/67/107 67/68/108
f 69/69/109 70/70/110 72/71/111 71/72/112
s 7
f 73/73/113 74/74/114 79/75/115 80/76/116
s 8
f 74/74/117 73/73/118 76/77/119 75/78/120
s 9
f 75/78/121 76/77/122 78/79/123 77/80/124
s 10
f 77/80/125 78/79/126 80/76/127 79/75/128
s 8
f 74/74/117 75/78/120 70/70/129 69/69/130
s 10
f 71/72/131 72/71/132 77/80/125 79/75/128
s 9
f 75/78/121 77/80/124 72/71/133 70/70/134
s 7
f 71/72/135 79/75/115 74/74/114 69/69/136
s 8
f 67/68/137 68/67/138 76/77/119 73/73/118
s 9
f 66/66/139 78/79/123 76/77/122 68/67/140
s 10
f 80/76/127 78/79/126 66/66/141 65/65/142
s 7
f 73/73/113 80/76/116 65/65/143 67/68/144
